<svg width="105" height="75" viewBox="0 0 105 75" fill="none" xmlns="http://www.w3.org/2000/svg">
<circle cx="52.5" cy="37.5" r="37.5" fill="white"/>
<path d="M55.3877 41.9865L55.2072 42.1594L55.3877 41.9865ZM27.6776 31.714L27.6314 31.4683L27.5802 31.478L27.5371 31.5072L27.6776 31.714ZM28.3432 37.4133C28.2177 37.471 28.1628 37.6195 28.2205 37.7449C28.2782 37.8703 28.4267 37.9253 28.5521 37.8676L28.3432 37.4133ZM60.147 34.7764L60.0027 34.5722L60.147 34.7764ZM60.5577 43.1435L60.4527 43.3704L60.5577 43.1435ZM49.88 38.8556L49.8884 39.1055L49.88 38.8556ZM34.9928 30.0019L34.9685 29.753L34.9082 30.2371L34.9928 30.0019ZM38.9744 23.5487L39.2145 23.479C39.1838 23.3733 39.0876 23.3001 38.9776 23.2987C38.8676 23.2972 38.7696 23.3679 38.7362 23.4727L38.9744 23.5487ZM63.6241 19.3343L63.87 19.2891L63.8604 19.2367L63.8302 19.1927L63.6241 19.3343ZM38.3235 26.3143L38.5717 26.3441L38.3235 26.3143ZM28.4476 28.0497L28.6051 28.2438L28.4476 28.0497ZM35.5062 21.3163L35.6523 21.5191L35.5062 21.3163ZM40.5113 10.415L40.398 10.1922L40.5113 10.415ZM61.1737 8.14003L61.1737 7.89003H61.1525L61.1315 7.89361L61.1737 8.14003ZM51.399 32.2407L51.4825 32.4764L51.399 32.2407ZM62.2592 24.2072L62.4764 24.3309L62.2592 24.2072ZM60.5577 18.5262L60.8072 18.512L60.7552 17.5969L60.3354 18.4118L60.5577 18.5262ZM56.6819 13.5396L56.9013 13.6594L56.9058 13.6512L56.9097 13.6426L56.6819 13.5396ZM48.2116 23.1536L48.2809 22.9134L48.0339 22.8422L47.9696 23.091L48.2116 23.1536ZM45.3882 26.0435L45.335 26.2878L45.3882 26.0435ZM52.7034 14.9884L52.7075 14.7384L51.9785 14.7264L52.5468 15.1832L52.7034 14.9884ZM42.8214 23.5439L42.6092 23.6761L42.8214 23.5439ZM46.4149 15.9102L46.6401 16.0188C46.6869 15.9217 46.6662 15.8056 46.5888 15.7306C46.5115 15.6557 46.3948 15.6387 46.2993 15.6885L46.4149 15.9102ZM51.399 15.6469L51.4503 15.4022L51.4402 15.4001L51.43 15.3988L51.399 15.6469ZM47.3133 25.2608L47.0898 25.3729L47.4233 26.0377L47.5591 25.3064L47.3133 25.2608ZM44.5596 15.1409C44.6438 15.0315 44.6234 14.8745 44.514 14.7903C44.4046 14.706 44.2476 14.7265 44.1634 14.8359L44.5596 15.1409ZM52.5306 6.25842L52.4979 6.50627L52.5306 6.25842ZM53.6308 6.16935L53.6179 5.91969L53.6308 6.16935ZM27.9031 28.5042L27.7403 28.3144L27.9031 28.5042ZM65.6009 41.9225L65.7797 42.0973L65.6009 41.9225ZM67.0541 38.313L67.2975 38.3701L67.0541 38.313ZM68.8625 36.7981L68.6217 36.731L68.8625 36.7981ZM79.2155 33.2008L79.4123 33.0467L79.2155 33.2008ZM79.2903 31.363L79.478 31.5281L79.2903 31.363ZM58.2608 55.488L58.2047 55.7316L58.2608 55.488ZM61.3048 54.3907L61.0993 54.2484L61.3048 54.3907ZM50.9615 22.1404L50.7177 22.0849L50.9615 22.1404ZM69.1262 8.5208L68.9056 8.63838L69.1262 8.5208ZM66.4972 6.09337L66.4448 5.84893L66.4972 6.09337ZM38.0008 46.3967L37.8286 46.5779L38.0008 46.3967ZM36.8338 43.3072L37.057 43.4199L36.8338 43.3072ZM26.2991 42.0172L26.4481 41.8164L26.2991 42.0172ZM44.0575 48.8787L43.9948 48.6367L44.0575 48.8787ZM55.4286 19.5164L55.1805 19.486L55.4286 19.5164ZM48.1207 52.6383L48.2273 52.4122L48.1207 52.6383ZM40.338 10.5115L40.2101 10.2967L40.338 10.5115ZM57.5103 47.6143L57.7541 47.67L57.5103 47.6143ZM57.5455 46.8892L57.7941 46.8624L57.5455 46.8892ZM72.9603 18.358L72.9905 18.1099L72.9603 18.358ZM71.3375 15.7534L71.3213 16.0029L71.3375 15.7534ZM56.2564 50.1809L56.05 50.0398L56.2564 50.1809ZM51.9772 52.8265L51.9865 53.0764L51.9772 52.8265ZM47.7622 55.8615L47.8701 56.087L47.7622 55.8615ZM43.9071 55.6729L43.7799 55.8881L43.9071 55.6729ZM57.2666 47.5586C57.0329 48.582 56.5477 49.312 56.05 50.0398L56.4627 50.3221C56.9615 49.5927 57.4973 48.7942 57.7541 47.67L57.2666 47.5586ZM51.9678 52.5767C51.1372 52.6078 50.3947 52.6575 49.7465 52.6515C49.0961 52.6455 48.5886 52.5824 48.2273 52.4122L48.0142 52.8645C48.4796 53.0838 49.0806 53.1454 49.7419 53.1515C50.4053 53.1576 51.1777 53.1066 51.9865 53.0764L51.9678 52.5767ZM40.7408 39.071C41.2389 38.7449 41.7451 38.3319 42.3405 37.8319L42.019 37.449C41.4224 37.95 40.937 38.3449 40.4669 38.6527L40.7408 39.071ZM54.2411 38.444C53.4635 38.4517 52.8296 38.5427 52.3462 38.7621C51.8495 38.9875 51.5179 39.3462 51.3559 39.8564C51.1988 40.3512 51.2073 40.9693 51.3359 41.7136C51.4651 42.4615 51.7205 43.3626 52.0814 44.4366L52.5554 44.2774C52.1973 43.2117 51.9514 42.3389 51.8286 41.6285C51.7052 40.9145 51.7111 40.39 51.8325 40.0077C51.949 39.6407 52.177 39.3879 52.5528 39.2174C52.942 39.0408 53.4935 38.9514 54.246 38.944L54.2411 38.444ZM54.2196 38.4452C53.1605 38.547 52.3925 38.7244 51.7451 38.9665C51.0986 39.2082 50.582 39.5111 50.0304 39.8495C48.9369 40.5203 47.6575 41.3624 44.7988 42.2751L44.9509 42.7514C47.8673 41.8203 49.1873 40.9533 50.2919 40.2757C50.8394 39.9398 51.3215 39.6587 51.9202 39.4348C52.518 39.2113 53.2416 39.0415 54.2674 38.9429L54.2196 38.4452ZM53.9993 38.6404C53.7934 39.5781 53.8622 40.2373 54.1203 40.7868C54.3704 41.3194 54.792 41.7263 55.2072 42.1594L55.5682 41.8135C55.1279 41.3541 54.7797 41.0147 54.5728 40.5742C54.3739 40.1506 54.2983 39.6098 54.4877 38.7477L53.9993 38.6404ZM55.2072 42.1594C55.6232 42.5934 56.0657 43.0827 56.4447 43.8087C56.8238 44.5348 57.1453 45.51 57.297 46.916L57.7941 46.8624C57.6368 45.4043 57.3003 44.3671 56.888 43.5773C56.4757 42.7875 55.9937 42.2574 55.5682 41.8135L55.2072 42.1594ZM58.3169 55.2443C53.9574 54.2411 50.9806 54.0441 47.6543 55.636L47.8701 56.087C51.0418 54.5691 53.8807 54.7365 58.2047 55.7316L58.3169 55.2443ZM43.9948 48.6367C42.3702 49.058 41.3684 48.9077 40.6273 48.5199L40.3954 48.9629C41.2778 49.4246 42.415 49.563 44.1203 49.1207L43.9948 48.6367ZM40.6273 48.5199C40.1539 48.2721 39.7681 47.9182 39.3841 47.5098C39.0099 47.1118 38.6167 46.6369 38.173 46.2154L37.8286 46.5779C38.2616 46.9892 38.6131 47.4197 39.0199 47.8522C39.4168 48.2744 39.848 48.6764 40.3954 48.9629L40.6273 48.5199ZM44.0344 55.4577C43.244 54.9903 42.4353 54.5933 41.7707 54.2232C41.0887 53.8434 40.5354 53.4806 40.1652 53.052C39.8052 52.6351 39.615 52.152 39.6687 51.5058C39.7237 50.8447 40.0356 49.9977 40.7246 48.8719L40.2981 48.6109C39.5918 49.7651 39.2348 50.6906 39.1705 51.4643C39.1049 52.2528 39.3446 52.8667 39.7868 53.3788C40.2188 53.879 40.84 54.2772 41.5274 54.66C42.2322 55.0525 42.9879 55.4197 43.7799 55.8881L44.0344 55.4577ZM37.057 43.4199C37.084 43.3664 37.1116 43.3128 37.1396 43.2591L36.6962 43.028C36.6674 43.0833 36.6388 43.1388 36.6107 43.1946L37.057 43.4199ZM37.1396 43.2591C37.2706 43.0078 37.4329 42.7134 37.5712 42.4451L37.1268 42.2161C36.9798 42.5012 36.8446 42.7432 36.6962 43.028L37.1396 43.2591ZM37.0245 42.9174C35.2048 42.0593 33.0935 42.2457 31.2 42.3971C30.241 42.4737 29.3382 42.5424 28.5232 42.4818C27.7106 42.4214 27.0107 42.2336 26.4481 41.8164L26.1502 42.218C26.8179 42.7131 27.6233 42.9162 28.4861 42.9804C29.3464 43.0444 30.2888 42.9715 31.2398 42.8955C33.1664 42.7415 35.1342 42.5788 36.8113 43.3696L37.0245 42.9174ZM25.8397 40.3421C25.7706 39.3417 25.6096 38.4686 25.4746 37.6928C25.3384 36.9105 25.2308 36.2376 25.2529 35.6063C25.2746 34.9838 25.4229 34.4042 25.8033 33.8146C26.1869 33.22 26.8151 32.6021 27.8181 31.9208L27.5371 31.5072C26.5016 32.2106 25.8156 32.8732 25.3832 33.5435C24.9475 34.2188 24.7777 34.8887 24.7532 35.5888C24.729 36.2801 24.847 37.0031 24.982 37.7785C25.1181 38.5604 25.2739 39.4069 25.3409 40.3766L25.8397 40.3421ZM27.7238 31.9597C31.0251 31.3392 33.3615 31.5999 35.4766 32.5993C37.6067 33.6059 39.5346 35.3705 42.0037 37.818L42.3557 37.4629C39.893 35.0218 37.9088 33.1956 35.6902 32.1473C33.4567 31.0918 31.008 30.8336 27.6314 31.4683L27.7238 31.9597ZM42.336 37.4453C40.4305 35.919 38.7182 35.0685 36.5658 35.0365C34.4307 35.0046 31.8956 35.7793 28.3432 37.4133L28.5521 37.8676C32.0926 36.2391 34.5415 35.5063 36.5584 35.5364C38.5579 35.5662 40.1651 36.347 42.0234 37.8356L42.336 37.4453ZM63.3885 46.2842C64.0526 48.1582 63.5008 50.7809 61.0993 54.2484L61.5103 54.5331C63.9412 51.0232 64.6058 48.2225 63.8598 46.1172L63.3885 46.2842ZM63.7547 46.4139C64.9597 45.6761 66.2811 45.366 67.6261 45.1897C68.2995 45.1014 68.9723 45.0473 69.6401 44.9882C70.3051 44.9293 70.9643 44.8655 71.5966 44.7575C72.8616 44.5414 74.0455 44.1445 74.9935 43.2282C75.9421 42.3114 76.6239 40.9047 76.9498 38.7311L76.4553 38.657C76.1395 40.7635 75.4898 42.0531 74.646 42.8687C73.8017 43.6847 72.7324 44.0562 71.5124 44.2646C70.9021 44.3689 70.2609 44.4313 69.596 44.4901C68.9341 44.5488 68.2477 44.6039 67.5611 44.6939C66.1865 44.8742 64.7852 45.1967 63.4936 45.9875L63.7547 46.4139ZM76.7025 38.444C75.8412 38.444 75.0751 38.2549 74.327 38.0269C73.5891 37.8019 72.8436 37.5294 72.0777 37.3942C71.2991 37.2567 70.4812 37.2558 69.5652 37.5684C68.6534 37.8796 67.6611 38.4957 66.5212 39.5653L66.8633 39.9299C67.9692 38.8922 68.902 38.3231 69.7267 38.0416C70.5473 37.7616 71.2775 37.7606 71.9908 37.8866C72.7169 38.0148 73.4072 38.2691 74.1812 38.5051C74.9451 38.738 75.7672 38.944 76.7025 38.944V38.444ZM76.7465 38.9401C78.1129 38.6962 79.2847 37.8862 79.8648 36.797C80.4523 35.694 80.4177 34.3305 79.4123 33.0467L79.0187 33.355C79.9057 34.4877 79.9153 35.6387 79.4235 36.562C78.9244 37.4992 77.8935 38.2275 76.6586 38.4479L76.7465 38.9401ZM79.478 31.5281C79.7818 31.1828 79.9523 30.8417 79.9792 30.5026C80.0065 30.1579 79.8822 29.8544 79.6738 29.5957C79.2718 29.0966 78.5206 28.7198 77.7396 28.4166C76.9485 28.1095 76.0638 27.8559 75.3626 27.6335C75.0076 27.5209 74.702 27.4172 74.4691 27.3177C74.3527 27.268 74.2606 27.2219 74.1923 27.1794C74.1206 27.1349 74.0922 27.1047 74.0843 27.0934L73.6739 27.379C73.7386 27.472 73.8336 27.5452 73.9284 27.6041C74.0265 27.6651 74.144 27.7226 74.2727 27.7775C74.5297 27.8874 74.8555 27.9972 75.2114 28.1101C75.932 28.3386 76.7873 28.5832 77.5587 28.8827C78.3403 29.1861 78.9742 29.5243 79.2844 29.9093C79.4321 30.0927 79.4957 30.2736 79.4807 30.4632C79.4653 30.6584 79.3634 30.9014 79.1026 31.1979L79.478 31.5281ZM73.6359 27.1783C73.2927 28.6192 72.7222 29.4911 72.0775 30.0472C71.4298 30.6059 70.6848 30.8656 69.954 31.043C69.5809 31.1336 69.2377 31.1972 68.8903 31.275C68.5543 31.3503 68.2287 31.436 67.9462 31.5646C67.6608 31.6945 67.4069 31.8736 67.2268 32.1421C67.0462 32.4114 66.9556 32.7471 66.9556 33.1626H67.4556C67.4556 32.8209 67.5293 32.5887 67.642 32.4206C67.7552 32.2519 67.9234 32.1244 68.1534 32.0197C68.3862 31.9137 68.6692 31.8369 68.9995 31.7629C69.3184 31.6915 69.699 31.6194 70.0719 31.5289C70.833 31.3441 71.6682 31.0606 72.4041 30.4258C73.1431 29.7883 73.7597 28.8165 74.1223 27.2942L73.6359 27.1783ZM71.3536 15.504C70.629 15.457 70.028 15.5449 69.4567 15.8029C68.8904 16.0588 68.3714 16.4739 67.7982 17.051L68.153 17.4033C68.7078 16.8447 69.1765 16.4782 69.6626 16.2586C70.1437 16.0413 70.6596 15.9601 71.3213 16.0029L71.3536 15.504ZM67.7557 17.1082C67.4132 17.7408 67.2454 18.4862 67.1388 19.2805C67.033 20.0676 66.9828 20.9499 66.894 21.8224C66.7138 23.5921 66.3665 25.4425 65.0836 27.0822L65.4774 27.3903C66.8503 25.6356 67.2088 23.6667 67.3914 21.8731C67.484 20.964 67.5293 20.1286 67.6343 19.3471C67.7383 18.5729 67.8962 17.8988 68.1954 17.3462L67.7557 17.1082ZM57.3567 36.0798C56.9114 36.9704 56.5218 37.5118 56.0594 37.8557C55.6015 38.1963 55.0445 38.3635 54.2189 38.4452L54.2681 38.9428C55.1355 38.8569 55.796 38.6747 56.3578 38.2569C56.9151 37.8424 57.3474 37.2164 57.8039 36.3035L57.3567 36.0798ZM65.0502 27.1389C63.4596 30.9039 62.2056 33.0159 60.0027 34.5722L60.2912 34.9806C62.6148 33.339 63.9134 31.1144 65.5108 27.3335L65.0502 27.1389ZM60.0027 34.5722C59.2832 35.0806 58.458 35.5326 57.4797 35.9628L57.6809 36.4205C58.6824 35.9802 59.5384 35.5125 60.2912 34.9806L60.0027 34.5722ZM60.2133 35.0175C63.5593 34.0969 65.0167 33.0141 69.05 33.5863L69.1202 33.0913C64.9514 32.4999 63.3301 33.6414 60.0807 34.5354L60.2133 35.0175ZM69.8476 33.9312C69.9111 34.0339 69.9219 34.1439 69.8758 34.2985C69.8262 34.4651 69.7178 34.6579 69.5646 34.9C69.2698 35.3661 68.8323 35.9751 68.6217 36.731L69.1033 36.8652C69.2891 36.1986 69.6716 35.6661 69.9871 35.1673C70.1392 34.9271 70.2835 34.6816 70.355 34.4412C70.4302 34.1889 70.4305 33.9231 70.2728 33.6682L69.8476 33.9312ZM66.8107 38.2559C66.5963 39.1693 66.3831 39.9081 66.1535 40.4895C65.9231 41.0728 65.6826 41.4813 65.4221 41.7478L65.7797 42.0973C66.1064 41.763 66.3769 41.2851 66.6185 40.6731C66.861 40.0592 67.0807 39.2936 67.2975 38.3701L66.8107 38.2559ZM55.3712 42.2359C57.3707 42.3681 59.1002 42.7452 60.4527 43.3704L60.6626 42.9166C59.2368 42.2575 57.4421 41.8717 55.4042 41.737L55.3712 42.2359ZM60.4527 43.3704C61.929 44.0529 62.9417 45.0232 63.3885 46.2842L63.8598 46.1172C63.3557 44.6945 62.2228 43.6379 60.6626 42.9166L60.4527 43.3704ZM42.011 37.8249C42.7617 38.5118 43.8298 38.8561 45.1417 39.019C46.4556 39.1822 48.0516 39.1674 49.8884 39.1055L49.8716 38.6058C48.0336 38.6677 46.4737 38.6806 45.2033 38.5228C43.9309 38.3648 42.9862 38.0395 42.3485 37.456L42.011 37.8249ZM49.8884 39.1055C51.2194 39.0606 52.6659 38.9914 54.251 38.9439L54.236 38.4441C52.6561 38.4915 51.187 38.5614 49.8716 38.6058L49.8884 39.1055ZM47.0655 36.1581C46.974 36.833 47.0759 37.3786 47.5342 37.8568C47.9675 38.3087 48.7011 38.6783 49.7918 39.0895L49.9682 38.6217C48.8766 38.2102 48.2421 37.8727 47.8952 37.5108C47.5734 37.1751 47.4831 36.8002 47.561 36.2252L47.0655 36.1581ZM34.9082 30.2371C37.1604 31.0474 38.7298 32.3318 39.9219 34.0259L40.3308 33.7381C39.0815 31.9629 37.4298 30.6129 35.0775 29.7666L34.9082 30.2371ZM39.9421 34.051C42.6912 37.0488 45.7011 37.7252 49.8009 39.0928L49.9591 38.6185C45.8062 37.2332 42.9516 36.593 40.3106 33.713L39.9421 34.051ZM39.8764 33.8889C39.91 35.1081 40.4813 36.0199 41.9889 37.8019L42.3706 37.479C40.8579 35.691 40.4045 34.9008 40.3762 33.8751L39.8764 33.8889ZM47.3874 35.9529C45.5945 35.3967 44.1376 34.4944 42.8217 33.5418C41.5201 32.5995 40.319 31.5764 39.1037 30.8415L38.845 31.2694C40.0399 31.9919 41.1782 32.9692 42.5285 33.9468C43.8645 34.914 45.3721 35.8512 47.2392 36.4304L47.3874 35.9529ZM39.1037 30.8415C37.8527 30.085 36.538 29.5995 34.9685 29.753L35.0172 30.2507C36.4425 30.1112 37.6484 30.5458 38.845 31.2694L39.1037 30.8415ZM65.5258 27.2843C65.8773 25.4922 65.6104 24.3248 65.1777 23.1789C64.7466 22.0374 64.1794 20.9717 63.87 19.2891L63.3783 19.3795C63.6985 21.1211 64.3 22.2702 64.7099 23.3556C65.1182 24.4365 65.3646 25.508 65.0352 27.1881L65.5258 27.2843ZM39.2117 30.9768C38.6052 29.1458 38.3918 27.8431 38.5717 26.3441L38.0753 26.2845C37.8835 27.8826 38.1175 29.2635 38.737 31.134L39.2117 30.9768ZM38.5717 26.3441C38.6684 25.5388 38.8795 24.6697 39.2126 23.6246L38.7362 23.4727C38.3978 24.5345 38.1771 25.4365 38.0753 26.2845L38.5717 26.3441ZM38.5019 26.1391C37.9257 25.5525 37.6326 24.9954 37.4978 24.4587C37.3622 23.9186 37.3824 23.3815 37.4599 22.8256C37.4987 22.547 37.5512 22.2684 37.6045 21.9819C37.6574 21.6975 37.7111 21.4059 37.7496 21.1116C37.8268 20.5217 37.845 19.9061 37.6726 19.269L37.1899 19.3996C37.3383 19.9478 37.3267 20.4899 37.2538 21.0468C37.2174 21.3258 37.1661 21.6048 37.1129 21.8904C37.0602 22.1739 37.0054 22.4645 36.9647 22.7565C36.8831 23.3419 36.855 23.9516 37.0129 24.5804C37.1716 25.2126 37.5137 25.8465 38.1452 26.4895L38.5019 26.1391ZM28.0658 28.694C28.249 28.5369 28.4287 28.3868 28.6051 28.2438L28.2902 27.8555C28.11 28.0016 27.9268 28.1545 27.7403 28.3144L28.0658 28.694ZM28.6051 28.2438C31.0223 26.2837 32.7578 25.6825 34.2507 26.1683C35.0054 26.4138 35.7302 26.9458 36.471 27.7838C37.212 28.6221 37.9576 29.7537 38.7563 31.1777L39.1924 30.9331C38.3865 29.4962 37.6207 28.3295 36.8456 27.4527C36.0703 26.5756 35.2744 25.9755 34.4054 25.6928C32.651 25.1219 30.7277 25.8788 28.2902 27.8555L28.6051 28.2438ZM37.2216 19.1981C36.7041 19.9947 36.0632 20.6069 35.3601 21.1134L35.6523 21.5191C36.3946 20.9844 37.083 20.3293 37.6409 19.4705L37.2216 19.1981ZM35.3601 21.1134C34.6108 21.6532 33.7941 22.071 32.9795 22.4655C32.1715 22.8567 31.3561 23.2291 30.6433 23.6693C29.9271 24.1117 29.2938 24.6344 28.8503 25.3412C28.4048 26.0513 28.163 26.9279 28.1977 28.0573L28.6975 28.042C28.6654 26.9968 28.8885 26.2211 29.2739 25.6069C29.6614 24.9892 30.2251 24.5154 30.9061 24.0947C31.5907 23.6719 32.373 23.3147 33.1974 22.9155C34.0152 22.5195 34.8655 22.086 35.6523 21.5191L35.3601 21.1134ZM35.7493 21.2579C35.0434 18.3205 34.9737 16.539 35.2054 15.4237C35.3203 14.8706 35.5085 14.4857 35.727 14.2038C35.9455 13.9217 36.2037 13.7307 36.4762 13.5773L36.2309 13.1416C35.9197 13.3168 35.6029 13.5476 35.3317 13.8975C35.0604 14.2477 34.844 14.7052 34.7159 15.322C34.4615 16.5465 34.5519 18.4149 35.2631 21.3747L35.7493 21.2579ZM40.4658 10.7263C40.523 10.6923 40.5759 10.6627 40.6247 10.6378L40.398 10.1922C40.3366 10.2234 40.2738 10.2588 40.2101 10.2967L40.4658 10.7263ZM40.6247 10.6378C41.2033 10.3434 41.6571 10.08 42.1455 9.94846C42.6135 9.82234 43.1116 9.82048 43.7534 10.0834L43.9429 9.62073C43.1999 9.31632 42.5895 9.31097 42.0154 9.46568C41.4615 9.61492 40.9394 9.91669 40.398 10.1922L40.6247 10.6378ZM74.0905 27.3697C75.3009 25.4528 76.3072 23.483 76.5008 21.8482C76.5984 21.0242 76.4925 20.2605 76.0775 19.6317C75.6614 19.0013 74.9594 18.5439 73.9409 18.284L73.8173 18.7685C74.7538 19.0075 75.3317 19.4094 75.6602 19.9071C75.9897 20.4063 76.0931 21.0394 76.0042 21.7894C75.8251 23.3023 74.8763 25.1886 73.6677 27.1027L74.0905 27.3697ZM73.9409 18.284C73.6509 18.21 73.3345 18.1517 72.9905 18.1099L72.93 18.6062C73.2555 18.6458 73.5506 18.7004 73.8173 18.7685L73.9409 18.284ZM74.1288 18.5396C74.3395 14.6007 73.4606 12.6285 72.3258 11.3383C71.7684 10.7046 71.1533 10.2419 70.6253 9.80795C70.0898 9.3678 69.6413 8.95575 69.3468 8.40321L68.9056 8.63838C69.2501 9.28489 69.7673 9.74994 70.3078 10.1942C70.8559 10.6447 71.4272 11.0738 71.9504 11.6686C72.9767 12.8354 73.8352 14.6668 73.6295 18.5129L74.1288 18.5396ZM66.4448 5.84893C65.495 6.05265 64.7076 6.59601 63.9236 7.04456C63.1271 7.50029 62.2922 7.89004 61.1737 7.89003L61.1737 8.39003C62.4222 8.39004 63.3487 7.94958 64.1719 7.47854C65.0078 7.00032 65.6986 6.52035 66.5497 6.33781L66.4448 5.84893ZM61.0108 8.32965C62.3161 9.45128 62.9923 10.3405 63.2307 11.2704C63.4686 12.1985 63.2834 13.2178 62.7371 14.635L63.2037 14.8148C63.7598 13.3719 63.9928 12.2299 63.715 11.1462C63.4377 10.0643 62.6643 9.09119 61.3366 7.95041L61.0108 8.32965ZM63.1626 14.8848C63.7679 14.1573 64.3211 13.5884 64.8184 13.2312C65.3214 12.8697 65.7173 12.76 66.0318 12.8467C66.3457 12.9333 66.6765 13.2426 66.9811 13.9655C67.2829 14.682 67.5361 15.7526 67.7276 17.2587L68.2236 17.1957C68.03 15.6727 67.7698 14.5498 67.4418 13.7714C67.1166 12.9995 66.7012 12.5127 66.1647 12.3647C65.6289 12.217 65.0703 12.4345 64.5266 12.8251C63.9772 13.2199 63.3916 13.8278 62.7782 14.565L63.1626 14.8848ZM62.7211 14.7068C62.5544 16.993 62.5625 18.2305 63.4181 19.4759L63.8302 19.1927C63.0854 18.1087 63.0522 17.0421 63.2198 14.7431L62.7211 14.7068ZM60.3437 26.7245C59.2768 28.4893 58.1615 30.9967 57.3335 36.152L57.8271 36.2313C58.6471 31.1264 59.7442 28.6826 60.7716 26.9832L60.3437 26.7245ZM57.8302 36.1979C57.8796 34.214 57.0367 32.87 55.7601 32.1761C54.4987 31.4904 52.8534 31.4605 51.3156 32.0051L51.4825 32.4764C52.9196 31.9675 54.4123 32.0125 55.5213 32.6154C56.6153 33.21 57.3756 34.3681 57.3304 36.1854L57.8302 36.1979ZM51.3156 32.0051C49.5542 32.6288 47.9028 34.0157 47.0807 36.0999L47.5458 36.2834C48.3101 34.3457 49.8449 33.0563 51.4825 32.4764L51.3156 32.0051ZM38.7343 23.6183C39.2579 25.4226 39.873 26.6815 40.5449 27.6505C41.2167 28.6193 41.9385 29.2879 42.6573 29.9134L42.9855 29.5362C42.2758 28.9186 41.5916 28.2825 40.9558 27.3656C40.3201 26.4488 39.7259 25.2411 39.2145 23.479L38.7343 23.6183ZM42.6573 29.9134C43.4539 30.6065 44.2357 31.2383 44.9837 32.1773C45.7286 33.1123 46.4439 34.3586 47.0759 36.2701L47.5506 36.1132C46.9027 34.1535 46.1613 32.853 45.3748 31.8657C44.5915 30.8825 43.7673 30.2164 42.9855 29.5362L42.6573 29.9134ZM51.616 32.1166C50.8953 30.857 50.1645 30.0623 49.4129 29.5875C48.657 29.11 47.8996 28.9682 47.1511 28.981C46.4132 28.9935 45.6715 29.1578 44.9619 29.2933C44.2415 29.4309 43.5442 29.5415 42.8448 29.4759L42.7981 29.9737C43.5746 30.0466 44.3335 29.9224 45.0557 29.7845C45.7888 29.6445 46.4761 29.4925 47.1597 29.4809C47.8327 29.4694 48.4892 29.5954 49.1459 30.0102C49.8068 30.4278 50.487 31.1502 51.182 32.3649L51.616 32.1166ZM63.3751 19.3122C63.167 21.6604 62.6726 22.9764 62.042 24.0834L62.4764 24.3309C63.1463 23.1549 63.6594 21.7681 63.8732 19.3564L63.3751 19.3122ZM62.042 24.0834C61.796 24.5152 61.5279 24.9176 61.2413 25.3433C60.9558 25.7674 60.6523 26.214 60.3437 26.7245L60.7716 26.9832C61.0727 26.4851 61.3688 26.0492 61.6561 25.6225C61.9423 25.1974 62.2201 24.7808 62.4764 24.3309L62.042 24.0834ZM62.4261 24.021C61.1932 22.9157 60.9787 21.5256 60.8072 18.512L60.3081 18.5404C60.4776 21.5205 60.6835 23.1303 62.0923 24.3933L62.4261 24.021ZM60.6902 26.6419C59.6633 25.9996 58.6093 25.6788 57.5904 25.6373L57.5701 26.1369C58.4961 26.1746 59.4664 26.4662 60.4251 27.0658L60.6902 26.6419ZM57.5904 25.6373C54.2832 25.5029 51.4682 28.2963 51.1498 32.2205L51.6482 32.261C51.95 28.5408 54.5903 26.0158 57.5701 26.1369L57.5904 25.6373ZM60.3354 18.4118C59.9897 19.0829 59.6287 19.5219 59.2798 19.8922C58.9387 20.2543 58.5689 20.5878 58.2644 20.9979C57.6278 21.8551 57.2433 23.067 57.3304 25.8948L57.8302 25.8794C57.7442 23.0913 58.1297 22.0178 58.6658 21.296C58.9475 20.9166 59.2647 20.6373 59.6437 20.2351C60.0147 19.8413 60.407 19.3646 60.7799 18.6407L60.3354 18.4118ZM63.2065 14.6425C62.7213 13.2524 62.3243 12.0922 61.6042 11.3082C60.8602 10.4982 59.8038 10.1154 58.0864 10.1651L58.1008 10.6649C59.7347 10.6176 60.6251 10.9814 61.236 11.6464C61.8707 12.3374 62.2365 13.3807 62.7344 14.8073L63.2065 14.6425ZM57.8658 10.3121L56.4541 13.4367L56.9097 13.6426L58.3214 10.518L57.8658 10.3121ZM43.2603 25.1146C42.6873 25.9096 42.373 26.5864 42.2803 27.3254C42.1884 28.0583 42.3183 28.8254 42.5802 29.7903L43.0627 29.6593C42.8051 28.7102 42.6971 28.0205 42.7765 27.3876C42.8551 26.7607 43.1214 26.1625 43.6659 25.4069L43.2603 25.1146ZM61.1315 7.89361C60.0942 8.07102 59.3623 7.49532 58.6526 7.02003C58.3211 6.79804 57.9525 6.56895 57.5683 6.5674C57.1445 6.56569 56.7906 6.83025 56.4692 7.3501L56.8945 7.61299C57.1758 7.15791 57.3959 7.06671 57.5663 7.0674C57.7764 7.06824 58.0223 7.19972 58.3744 7.43548C59.0317 7.87566 59.9431 8.60413 61.2158 8.38645L61.1315 7.89361ZM56.5585 7.69895C57.3638 8.15612 57.7864 8.51284 57.9672 8.8842C58.1387 9.23634 58.117 9.65737 57.8602 10.3253L58.327 10.5047C58.6004 9.7934 58.6801 9.20593 58.4167 8.66527C58.1628 8.14384 57.6144 7.72346 56.8053 7.26413L56.5585 7.69895ZM52.5634 6.01057C51.7955 5.90921 51.0562 5.61145 50.3003 5.32153C49.5597 5.03748 48.7955 4.75761 48.0336 4.75015C47.2505 4.74249 46.4882 5.02114 45.7492 5.80091C45.0207 6.56962 44.3156 7.82366 43.613 9.76707L44.0832 9.93706C44.7766 8.01911 45.4531 6.84024 46.1121 6.14485C46.7606 5.46052 47.3919 5.2439 48.0287 5.25013C48.6867 5.25657 49.3689 5.49979 50.1213 5.78837C50.8584 6.07109 51.6589 6.39551 52.4979 6.50627L52.5634 6.01057ZM56.6819 7.23154C56.0346 7.23154 55.6271 7.03893 55.302 6.80884C55.1326 6.68905 54.9882 6.56124 54.8308 6.42937C54.6787 6.30197 54.5142 6.17053 54.327 6.07403L54.0979 6.51849C54.2316 6.58736 54.3595 6.68676 54.5096 6.81261C54.6545 6.93398 54.8221 7.08183 55.0132 7.21701C55.4087 7.49688 55.9151 7.73154 56.6819 7.73154V7.23154ZM54.327 6.07403C54.1224 5.96858 53.8924 5.90546 53.6179 5.91969L53.6437 6.41902C53.8196 6.40991 53.9622 6.44852 54.0979 6.51849L54.327 6.07403ZM54.0473 6.48391C54.4973 6.88005 54.7439 7.19991 54.8656 7.56083C54.9884 7.92508 54.9954 8.36459 54.8947 9.02422L55.389 9.0997C55.4938 8.41344 55.5005 7.87884 55.3394 7.40109C55.1772 6.92 54.8563 6.52996 54.3776 6.1086L54.0473 6.48391ZM57.8235 25.8294C57.1894 23.1587 56.2867 21.4696 55.2975 20.6824L54.9862 21.0737C55.8402 21.7533 56.71 23.3038 57.3371 25.9449L57.8235 25.8294ZM37.6805 19.3541C37.7356 18.6589 37.8918 18.2293 38.1056 17.9253C38.3206 17.6196 38.6109 17.4154 38.9895 17.1977C39.7507 16.76 40.8034 16.3067 41.8671 14.874L41.4657 14.5759C40.476 15.9088 39.526 16.3125 38.7403 16.7642C38.3455 16.9912 37.9764 17.2398 37.6966 17.6377C37.4156 18.0372 37.2417 18.562 37.182 19.3146L37.6805 19.3541ZM41.9153 14.702C41.8416 13.9002 41.878 13.2784 42.1656 12.5933C42.4576 11.8979 43.0167 11.1179 44.0316 10.0219L43.6647 9.6822C42.6388 10.7901 42.0312 11.622 41.7046 12.3998C41.3737 13.188 41.3396 13.9007 41.4174 14.7478L41.9153 14.702ZM56.8008 13.3198C55.5278 12.631 54.5637 11.8601 53.7464 11.1209C53.3363 10.7502 52.9653 10.3893 52.6066 10.0472C52.2498 9.70676 51.9053 9.3849 51.5567 9.10162L51.2414 9.48967C51.5732 9.75931 51.9053 10.0691 52.2615 10.4089C52.6159 10.747 52.9945 11.1151 53.411 11.4918C54.2467 12.2475 55.2436 13.0457 56.5629 13.7595L56.8008 13.3198ZM51.5567 9.10162C50.6944 8.40102 49.7914 7.92402 48.5535 7.94378C47.3327 7.96327 45.819 8.46578 43.7263 9.63376L43.97 10.0704C46.0387 8.91577 47.4649 8.46122 48.5615 8.44371C49.6409 8.42648 50.4326 8.83256 51.2414 9.48967L51.5567 9.10162ZM41.7769 14.9492C42.6073 14.5401 43.3402 13.9751 44.0393 13.3723C44.7513 12.7583 45.3998 12.1323 46.1222 11.539C47.5402 10.3744 49.1124 9.45319 51.3889 9.54544L51.4091 9.04585C48.9593 8.94658 47.2694 9.94983 45.8048 11.1526C45.0859 11.7431 44.3879 12.4115 43.7128 12.9936C43.0247 13.5869 42.3297 14.1195 41.5559 14.5007L41.7769 14.9492ZM50.9479 24.1562C50.5204 26.21 50.501 28.9843 51.1537 32.2892L51.6443 32.1923C51.0014 28.9374 51.0265 26.2324 51.4374 24.2581L50.9479 24.1562ZM51.6443 32.1923C51.208 29.9836 50.5964 28.5897 49.8566 27.6903C49.1097 26.7823 48.2504 26.4003 47.3747 26.1784L47.2519 26.663C48.0605 26.868 48.8117 27.2071 49.4704 28.008C50.1363 28.8175 50.7253 30.1202 51.1537 32.2892L51.6443 32.1923ZM55.3838 20.9409C55.5195 20.419 55.6259 19.9622 55.6768 19.5468L55.1805 19.486C55.1339 19.8663 55.0349 20.2959 54.8999 20.8151L55.3838 20.9409ZM55.2975 20.6824C54.7356 20.2353 54.1327 20.0706 53.5443 20.2096L53.6593 20.6962C54.0683 20.5996 54.5178 20.7009 54.9862 21.0737L55.2975 20.6824ZM53.5443 20.2096C52.9417 20.352 52.4057 20.8008 51.9692 21.4677C51.5314 22.1367 51.179 23.0457 50.9479 24.1562L51.4374 24.2581C51.6598 23.1892 51.9935 22.3436 52.3875 21.7415C52.7829 21.1375 53.2247 20.7989 53.6593 20.6962L53.5443 20.2096ZM51.4195 24.1021C51.2741 23.7883 51.1719 23.5633 51.1265 23.2933C51.0819 23.0273 51.0905 22.7 51.2052 22.1958L50.7177 22.0849C50.5938 22.6293 50.5746 23.0257 50.6334 23.3761C50.6916 23.7226 50.8242 24.0067 50.9658 24.3123L51.4195 24.1021ZM50.9567 24.1244C50.575 25.2129 50.1981 25.8075 49.6702 26.0947L49.9093 26.5339C50.6133 26.1507 51.0414 25.3937 51.4285 24.2899L50.9567 24.1244ZM49.6702 26.0947C49.1705 26.3667 48.4753 26.3962 47.3619 26.1755L47.2647 26.6659C48.4006 26.8911 49.247 26.8943 49.9093 26.5339L49.6702 26.0947ZM50.039 26.333C50.1134 25.3424 50.0893 24.5963 49.8266 24.0407C49.5515 23.4593 49.0409 23.1327 48.2809 22.9134L48.1423 23.3938C48.8331 23.5931 49.186 23.8558 49.3746 24.2545C49.5754 24.679 49.6149 25.3039 49.5405 26.2956L50.039 26.333ZM47.9696 23.091C47.6905 24.1701 47.6337 24.9509 47.9361 25.5159C48.2454 26.0936 48.883 26.3633 49.734 26.558L49.8455 26.0706C49.0034 25.8779 48.573 25.6462 48.3769 25.2799C48.174 24.9009 48.1747 24.2951 48.4536 23.2162L47.9696 23.091ZM49.8486 26.0713C48.6714 25.7863 47.8112 25.5207 47.0622 25.1259C46.3174 24.7333 45.6702 24.2061 44.9328 23.382L44.5602 23.7154C45.3264 24.5717 46.019 25.1412 46.829 25.5682C47.6348 25.993 48.5445 26.27 49.7309 26.5573L49.8486 26.0713ZM47.3747 26.1784C47.0499 26.0961 46.7218 26.0355 46.3994 25.9786C46.0744 25.9212 45.7572 25.868 45.4414 25.7992L45.335 26.2878C45.6632 26.3592 45.9934 26.4147 46.3125 26.471C46.634 26.5277 46.9464 26.5856 47.2519 26.663L47.3747 26.1784ZM45.4414 25.7992C44.7985 25.6593 44.1831 25.4594 43.6064 25.0559L43.3198 25.4656C43.973 25.9226 44.6606 26.141 45.335 26.2878L45.4414 25.7992ZM44.4979 23.5226C44.4383 24.091 44.4248 24.5498 44.5252 24.9758C44.6272 25.4088 44.8412 25.786 45.1977 26.2054L45.5787 25.8816C45.2562 25.5022 45.0904 25.1946 45.0119 24.8611C44.9317 24.5207 44.9368 24.1315 44.9951 23.5747L44.4979 23.5226ZM53.9074 19.4843C53.7748 19.7445 53.6097 20.011 53.3982 20.3078L53.8054 20.598C54.0276 20.2862 54.2066 19.9984 54.3529 19.7113L53.9074 19.4843ZM54.3127 19.4269C53.8201 18.9007 53.3693 18.4753 52.9351 18.1759C52.4994 17.8754 52.0668 17.6922 51.6132 17.6706C50.7022 17.6273 49.8331 18.238 48.793 19.4337L49.1703 19.7619C50.2054 18.5718 50.9335 18.1388 51.5894 18.1701C51.9193 18.1858 52.2625 18.3194 52.6512 18.5875C53.0413 18.8565 53.4632 19.2512 53.9477 19.7686L54.3127 19.4269ZM48.9764 19.8477C49.6086 19.8609 50.0657 19.9508 50.3929 20.1095C50.7106 20.2637 50.9156 20.4873 51.0421 20.8C51.1727 21.1227 51.224 21.5517 51.2024 22.1164C51.1809 22.679 51.0882 23.3559 50.9464 24.164L51.4388 24.2504C51.5817 23.4363 51.6793 22.7327 51.7021 22.1354C51.7248 21.5402 51.6745 21.0297 51.5056 20.6124C51.3327 20.1851 51.0404 19.868 50.6112 19.6597C50.1916 19.4561 49.6524 19.3617 48.9868 19.3478L48.9764 19.8477ZM56.4625 13.4198C55.8567 14.5294 55.9024 15.6496 55.9463 16.7108L56.4459 16.6901C56.4014 15.6156 56.3708 14.6312 56.9013 13.6594L56.4625 13.4198ZM55.9463 16.7108C56.0028 18.0771 56.0596 19.3761 54.9492 20.7187L55.3345 21.0374C56.578 19.5338 56.5023 18.053 56.4459 16.6901L55.9463 16.7108ZM56.3955 16.5496C55.8485 15.8265 55.3502 15.3699 54.7611 15.0978C54.1752 14.8272 53.5263 14.7519 52.7075 14.7384L52.6993 15.2383C53.4996 15.2515 54.0629 15.3261 54.5515 15.5518C55.0369 15.776 55.4755 16.1622 55.9967 16.8513L56.3955 16.5496ZM52.5468 15.1832C53.1416 15.6614 53.5185 16.082 53.7309 16.6998C53.9476 17.3301 54.0027 18.1934 53.8811 19.5759L54.3792 19.6197C54.5023 18.2198 54.4557 17.2701 54.2038 16.5372C53.9475 15.7919 53.4888 15.2989 52.8601 14.7935L52.5468 15.1832ZM41.438 14.6232C40.0549 17.7292 39.9727 19.4713 40.4743 20.7288C40.7223 21.3507 41.1057 21.8329 41.4955 22.283C41.8911 22.7398 42.2849 23.1556 42.6092 23.6761L43.0336 23.4117C42.6825 22.8482 42.2506 22.3912 41.8735 21.9557C41.4905 21.5135 41.1542 21.0838 40.9387 20.5436C40.5132 19.4769 40.529 17.8936 41.8948 14.8266L41.438 14.6232ZM42.6092 23.6761C42.8856 24.1196 43.1082 24.6361 43.2164 25.3009L43.7099 25.2206C43.59 24.4836 43.3411 23.9052 43.0336 23.4117L42.6092 23.6761ZM46.1897 15.8016C45.7075 16.8017 45.3185 17.6638 45.0203 18.4362L45.4868 18.6163C45.7779 17.8621 46.1603 17.0138 46.6401 16.0188L46.1897 15.8016ZM45.0203 18.4362C44.2333 20.4755 44.0768 21.8994 44.504 23.6093L44.989 23.4881C44.5932 21.9035 44.7261 20.5871 45.4868 18.6163L45.0203 18.4362ZM45.4425 18.69C46.4936 17.4776 47.3214 16.7054 48.2059 16.2706C49.0803 15.8406 50.0359 15.7283 51.368 15.8949L51.43 15.3988C50.0372 15.2246 48.975 15.3352 47.9853 15.8219C47.0057 16.3035 46.1232 17.1415 45.0647 18.3625L45.4425 18.69ZM54.3759 19.5515C54.154 18.3748 53.9456 17.442 53.5317 16.7558C53.1025 16.0442 52.4654 15.615 51.4503 15.4022L51.3477 15.8915C52.2541 16.0816 52.7592 16.4432 53.1035 17.014C53.4631 17.6102 53.6596 18.4514 53.8845 19.6441L54.3759 19.5515ZM51.1492 15.6562C51.1842 16.5955 51.4146 17.2982 51.8911 17.9405C52.3585 18.5704 53.054 19.1293 53.9839 19.8005L54.2765 19.3951C53.3457 18.7232 52.709 18.2037 52.2927 17.6426C51.8855 17.0938 51.6807 16.4926 51.6488 15.6375L51.1492 15.6562ZM50.4376 21.8438C49.9764 22.5875 49.7218 23.7099 49.5404 26.2968L50.0391 26.3318C50.2212 23.7348 50.4749 22.7324 50.8625 22.1074L50.4376 21.8438ZM50.8999 21.9834C50.9188 21.3789 50.8102 20.9185 50.5035 20.505C50.2083 20.1071 49.7441 19.7744 49.1129 19.385L48.8504 19.8106C49.4822 20.2003 49.8698 20.49 50.1019 20.8029C50.3225 21.1003 50.4167 21.4392 50.4001 21.9678L50.8999 21.9834ZM48.8289 19.3999C48.4621 19.6829 48.1934 19.9984 47.994 20.3512L48.4292 20.5972C48.595 20.304 48.819 20.039 49.1343 19.7957L48.8289 19.3999ZM47.994 20.3512C47.6505 20.9587 47.5217 21.6619 47.4258 22.4529C47.3286 23.2551 47.2649 24.1516 47.0675 25.2151L47.5591 25.3064C47.7603 24.2225 47.8285 23.2867 47.9222 22.513C48.0173 21.7281 48.1384 21.1117 48.4292 20.5972L47.994 20.3512ZM51.3154 15.4112C49.9867 15.8825 48.8973 16.37 47.995 17.0248L48.2887 17.4295C49.1335 16.8164 50.1703 16.3479 51.4826 15.8825L51.3154 15.4112ZM47.995 17.0248C46.2615 18.2829 45.2656 20.1239 44.5027 23.4934L44.9903 23.6039C45.7418 20.2848 46.698 18.5839 48.2887 17.4295L47.995 17.0248ZM48.3854 20.2944C48.0386 19.9593 47.8935 19.644 47.892 19.2205C47.8903 18.7702 48.0504 18.1844 48.376 17.3148L47.9077 17.1395C47.5826 18.008 47.3899 18.671 47.392 19.2223C47.3941 19.8004 47.6092 20.2396 48.0379 20.654L48.3854 20.2944ZM47.9467 17.0709C46.6981 18.6297 46.0558 19.8905 45.9524 21.1889C45.8493 22.4846 46.2871 23.7726 47.0898 25.3729L47.5367 25.1487C46.7435 23.5674 46.359 22.3824 46.4508 21.2286C46.5425 20.0774 47.1124 18.9123 48.337 17.3835L47.9467 17.0709ZM56.4361 16.6305C55.8137 14.4949 55.2896 13.1201 53.641 12.1154L53.3808 12.5423C54.8529 13.4395 55.3355 14.641 55.9561 16.7704L56.4361 16.6305ZM43.0649 23.6007C43.4687 21.8676 43.8043 20.4762 44.1885 19.3623C44.5725 18.2491 44.9977 17.4363 45.5677 16.8481L45.2087 16.5002C44.5652 17.1642 44.1102 18.0559 43.7158 19.1993C43.3216 20.342 42.9805 21.7594 42.578 23.4872L43.0649 23.6007ZM45.5677 16.8481C45.8465 16.5604 46.1626 16.3238 46.5305 16.1318L46.2993 15.6885C45.8843 15.905 45.525 16.1737 45.2087 16.5002L45.5677 16.8481ZM50.7687 12.0222C50.1396 12.2141 49.4639 12.3597 48.7787 12.5341C48.1035 12.706 47.4287 12.904 46.8467 13.1969C46.2624 13.491 45.7563 13.8884 45.4369 14.467C45.1167 15.0471 45.0007 15.7792 45.141 16.7113L45.6354 16.637C45.5071 15.7842 45.6204 15.1693 45.8747 14.7086C46.1298 14.2464 46.5435 13.9093 47.0715 13.6435C47.602 13.3765 48.2322 13.1892 48.902 13.0186C49.5619 12.8507 50.2713 12.6967 50.9146 12.5005L50.7687 12.0222ZM43.0642 23.4844C42.6877 21.948 42.3365 20.8392 42.4337 19.6185C42.5296 18.4139 43.0692 17.0767 44.5596 15.1409L44.1634 14.8359C42.643 16.8106 42.042 18.2392 41.9353 19.5788C41.8299 20.9022 42.214 22.116 42.5786 23.6034L43.0642 23.4844ZM73.923 26.9901C73.2237 26.8653 72.5553 26.5608 71.8745 26.2196C71.2047 25.8838 70.513 25.5068 69.8093 25.2784C69.0963 25.047 68.3476 24.9592 67.5503 25.2109C66.7568 25.4616 65.9464 26.0388 65.0879 27.0769L65.4731 27.3956C66.2936 26.4036 67.0286 25.9 67.7009 25.6877C68.3695 25.4766 69.007 25.5437 69.655 25.754C70.3122 25.9673 70.9561 26.3185 71.6505 26.6666C72.334 27.0091 73.0586 27.3438 73.8352 27.4823L73.923 26.9901ZM65.483 27.3828C66.9905 25.2992 68.144 23.7269 69.2289 22.7286C70.3019 21.7413 71.2713 21.3486 72.4218 21.5621L72.513 21.0705C71.1547 20.8184 70.0326 21.3096 68.8904 22.3607C67.7601 23.4007 66.5745 25.0212 65.0779 27.0897L65.483 27.3828ZM73.6559 40.3472C72.768 39.5931 72.0286 39.1588 71.2583 39.1141C70.4837 39.0693 69.7404 39.4216 68.8542 40.0729L69.1503 40.4758C70.0126 39.8421 70.6352 39.5789 71.2294 39.6133C71.8279 39.648 72.4603 39.9878 73.3323 40.7283L73.6559 40.3472ZM53.641 12.1154C52.7521 11.5735 51.6625 11.7496 50.7687 12.0222L50.9146 12.5005C51.7906 12.2333 52.6899 12.1212 53.3808 12.5423L53.641 12.1154ZM52.4979 6.50627C52.7163 6.53509 52.9268 6.51334 53.1148 6.48673C53.3127 6.45871 53.474 6.42782 53.6437 6.41902L53.6179 5.91969C53.4185 5.93002 53.2129 5.96785 53.0447 5.99167C52.8664 6.01691 52.7115 6.03012 52.5634 6.01057L52.4979 6.50627ZM27.8705 31.555C27.1535 30.6854 27.226 29.4139 28.0658 28.694L27.7403 28.3144C26.6781 29.2251 26.6079 30.8096 27.4847 31.8731L27.8705 31.555ZM65.4221 41.7478C64.9204 42.2611 64.1208 42.557 63.2152 42.7183C62.3161 42.8784 61.3524 42.8992 60.5594 42.8935L60.5559 43.3935C61.3556 43.3992 62.3569 43.379 63.3029 43.2105C64.2424 43.0432 65.168 42.723 65.7797 42.0973L65.4221 41.7478ZM67.8931 37.3904C67.3724 37.3904 66.9281 37.7556 66.8107 38.2559L67.2975 38.3701C67.3634 38.0892 67.6112 37.8904 67.8931 37.8904V37.3904ZM68.6217 36.731C68.5144 37.1162 68.2152 37.3904 67.8931 37.3904V37.8904C68.5126 37.8904 68.9579 37.3872 69.1033 36.8652L68.6217 36.731ZM69.05 33.5863C69.2302 33.6119 69.4005 33.6447 69.5448 33.7023C69.6871 33.759 69.7869 33.833 69.8476 33.9312L70.2728 33.6682C70.1376 33.4495 69.9342 33.3193 69.7301 33.2379C69.528 33.1573 69.3088 33.118 69.1202 33.0913L69.05 33.5863ZM79.4123 33.0467C79.0735 32.6141 79.1054 31.9517 79.478 31.5281L79.1026 31.1979C78.5808 31.791 78.5226 32.7214 79.0187 33.355L79.4123 33.0467ZM58.2047 55.7316C59.4412 56.0161 60.7725 55.5984 61.5103 54.5331L61.0993 54.2484C60.493 55.1238 59.381 55.4892 58.3169 55.2443L58.2047 55.7316ZM40.4669 38.6527C39.1518 39.5139 37.8563 40.8009 37.1268 42.2161L37.5712 42.4451C38.2524 41.1237 39.4801 39.8965 40.7408 39.071L40.4669 38.6527ZM51.2052 22.1958C51.2542 21.9808 51.1544 21.7809 50.9861 21.6895C50.9023 21.644 50.7981 21.6243 50.692 21.6513C50.5834 21.679 50.4958 21.7498 50.4376 21.8438L50.8625 22.1074C50.8626 22.1072 50.8593 22.1125 50.8507 22.1191C50.8419 22.1259 50.83 22.1322 50.8156 22.1358C50.7862 22.1433 50.7617 22.1366 50.7475 22.1289C50.7336 22.1213 50.7255 22.1112 50.7214 22.1021C50.7165 22.0913 50.7179 22.0839 50.7177 22.0849L51.2052 22.1958ZM69.3468 8.40321C69.0379 7.82357 68.6947 7.11238 68.2605 6.59338C67.8172 6.06356 67.2328 5.67993 66.4448 5.84893L66.5497 6.33781C67.0825 6.22353 67.4949 6.45755 67.877 6.91424C68.2682 7.38175 68.5791 8.02591 68.9056 8.63838L69.3468 8.40321ZM38.173 46.2154C37.7295 45.7941 37.3236 45.325 37.0942 44.8403C36.8684 44.3632 36.8203 43.8889 37.057 43.4199L36.6107 43.1946C36.2862 43.8376 36.37 44.4791 36.6422 45.0542C36.9108 45.6217 37.369 46.1413 37.8286 46.5779L38.173 46.2154ZM26.4481 41.8164C26.0365 41.5112 25.8822 40.9566 25.8397 40.3421L25.3409 40.3766C25.3852 41.0177 25.5508 41.7735 26.1502 42.218L26.4481 41.8164ZM45.6492 49.5777C45.5111 49.3186 45.253 49.0547 44.9698 48.8708C44.6946 48.6921 44.3325 48.5492 43.9948 48.6367L44.1203 49.1207C44.2528 49.0864 44.462 49.1373 44.6976 49.2902C44.9252 49.438 45.1175 49.6433 45.208 49.8129L45.6492 49.5777ZM55.6768 19.5468C55.7096 19.2791 55.6697 19.0367 55.5255 18.8627C55.3753 18.6816 55.1567 18.6277 54.9525 18.6507C54.561 18.6947 54.1457 19.0168 53.9074 19.4843L54.3529 19.7113C54.5377 19.3488 54.8282 19.1678 55.0085 19.1475C55.0903 19.1383 55.1241 19.1619 55.1406 19.1819C55.1631 19.2091 55.2043 19.2914 55.1805 19.486L55.6768 19.5468ZM48.2273 52.4122C47.7272 52.1765 47.2227 51.7354 46.7677 51.2093C46.315 50.686 45.9246 50.0943 45.6492 49.5777L45.208 49.8129C45.4993 50.3592 45.9102 50.9823 46.3895 51.5364C46.8665 52.0878 47.4247 52.5867 48.0142 52.8645L48.2273 52.4122ZM36.4762 13.5773C37.1407 13.2032 37.8334 12.6685 38.5062 12.1444C39.1864 11.6144 39.846 11.0954 40.4658 10.7263L40.2101 10.2967C39.5573 10.6853 38.8701 11.227 38.1989 11.7499C37.5202 12.2787 36.857 12.7891 36.2309 13.1416L36.4762 13.5773ZM57.7541 47.67C57.8154 47.4013 57.8225 47.1262 57.7941 46.8624L57.297 46.916C57.3206 47.1353 57.3134 47.3535 57.2666 47.5586L57.7541 47.67ZM71.8293 16.8885C71.525 17.6915 72.1241 18.5081 72.93 18.6062L72.9905 18.1099C72.4593 18.0452 72.1238 17.5222 72.2969 17.0657L71.8293 16.8885ZM72.2969 17.0657C72.5579 16.3769 72.1434 15.5551 71.3536 15.504L71.3213 16.0029C71.7219 16.0289 71.991 16.4619 71.8293 16.8885L72.2969 17.0657ZM56.05 50.0398C55.1347 51.3782 53.5357 52.5181 51.9678 52.5767L51.9865 53.0764C53.7616 53.01 55.4897 51.7449 56.4627 50.3221L56.05 50.0398ZM47.6543 55.636C46.5112 56.1831 45.1299 56.1056 44.0344 55.4577L43.7799 55.8881C45.0141 56.618 46.5717 56.7084 47.8701 56.087L47.6543 55.636Z" fill="black"/>
<path d="M0.72 68.036C0.648 68.036 0.596 68.008 0.564 67.952C0.532 67.896 0.516 67.836 0.516 67.772C0.524 67.636 0.556 67.56 0.612 67.544C0.668 67.528 0.736 67.52 0.816 67.52C1.072 67.52 1.252 67.476 1.356 67.388C1.46 67.292 1.524 67.176 1.548 67.04C1.58 66.896 1.596 66.748 1.596 66.596V61.832C1.596 61.68 1.58 61.536 1.548 61.4C1.524 61.256 1.46 61.14 1.356 61.052C1.252 60.956 1.072 60.908 0.816 60.908C0.736 60.908 0.668 60.9 0.612 60.884C0.556 60.868 0.524 60.792 0.516 60.656C0.516 60.592 0.532 60.532 0.564 60.476C0.596 60.42 0.648 60.392 0.72 60.392C0.976 60.4 1.216 60.408 1.44 60.416C1.672 60.424 1.908 60.428 2.148 60.428H5.616C5.704 60.428 5.776 60.448 5.832 60.488C5.896 60.528 5.928 60.604 5.928 60.716L5.964 62.396C5.964 62.476 5.924 62.536 5.844 62.576C5.772 62.616 5.704 62.636 5.64 62.636C5.552 62.636 5.468 62.62 5.388 62.588C5.316 62.548 5.272 62.492 5.256 62.42C5.208 62.06 5.144 61.772 5.064 61.556C4.992 61.332 4.88 61.172 4.728 61.076C4.584 60.972 4.372 60.916 4.092 60.908H2.784V64.028H4.932C4.996 64.036 5.044 64.068 5.076 64.124C5.108 64.18 5.124 64.24 5.124 64.304C5.124 64.36 5.108 64.416 5.076 64.472C5.044 64.52 4.996 64.544 4.932 64.544H2.784V66.596C2.792 66.748 2.808 66.896 2.832 67.04C2.856 67.176 2.92 67.292 3.024 67.388C3.136 67.476 3.316 67.52 3.564 67.52C3.644 67.52 3.712 67.528 3.768 67.544C3.824 67.56 3.856 67.636 3.864 67.772C3.864 67.836 3.848 67.896 3.816 67.952C3.784 68.008 3.728 68.036 3.648 68.036C3.136 68.012 2.64 68 2.16 68C1.92 68 1.684 68 1.452 68C1.22 68.008 0.976 68.02 0.72 68.036ZM7.47234 68.036C7.40034 68.036 7.34834 68.008 7.31634 67.952C7.28434 67.896 7.26834 67.836 7.26834 67.772C7.27634 67.636 7.30834 67.56 7.36434 67.544C7.42034 67.528 7.48834 67.52 7.56834 67.52C7.82434 67.52 8.00434 67.476 8.10834 67.388C8.21234 67.292 8.27634 67.176 8.30034 67.04C8.33234 66.896 8.34834 66.748 8.34834 66.596V61.832C8.34834 61.68 8.33234 61.536 8.30034 61.4C8.27634 61.256 8.21234 61.14 8.10834 61.052C8.00434 60.956 7.82434 60.908 7.56834 60.908C7.48834 60.908 7.42034 60.9 7.36434 60.884C7.30834 60.868 7.27634 60.792 7.26834 60.656C7.26834 60.592 7.28434 60.532 7.31634 60.476C7.34834 60.42 7.40034 60.392 7.47234 60.392C7.73634 60.4 7.98034 60.408 8.20434 60.416C8.42834 60.424 8.66034 60.428 8.90034 60.428C9.38834 60.428 9.88834 60.416 10.4003 60.392C10.4803 60.392 10.5363 60.42 10.5683 60.476C10.6003 60.532 10.6163 60.592 10.6163 60.656C10.6083 60.792 10.5763 60.868 10.5203 60.884C10.4643 60.9 10.3963 60.908 10.3163 60.908C10.0683 60.908 9.88834 60.956 9.77634 61.052C9.67234 61.14 9.60834 61.256 9.58434 61.4C9.56034 61.536 9.54434 61.68 9.53634 61.832V66.776C9.54434 66.88 9.56034 66.992 9.58434 67.112C9.60834 67.232 9.67634 67.332 9.78834 67.412C9.90834 67.492 10.1043 67.528 10.3763 67.52H11.4563C11.7363 67.512 11.9483 67.468 12.0923 67.388C12.2443 67.3 12.3643 67.156 12.4523 66.956C12.5403 66.756 12.6363 66.48 12.7403 66.128C12.7723 66.048 12.8243 65.996 12.8963 65.972C12.9763 65.948 13.0603 65.944 13.1483 65.96C13.2123 65.968 13.2763 65.996 13.3403 66.044C13.4123 66.092 13.4443 66.156 13.4363 66.236L13.1963 67.748C13.1723 67.86 13.1323 67.932 13.0763 67.964C13.0283 67.988 12.9523 68 12.8483 68H8.91234C8.67234 68 8.43634 68 8.20434 68C7.98034 68.008 7.73634 68.02 7.47234 68.036ZM18.5998 68.24C18.0158 68.24 17.4878 68.132 17.0158 67.916C16.5438 67.7 16.1398 67.408 15.8038 67.04C15.4678 66.672 15.2118 66.256 15.0358 65.792C14.8598 65.32 14.7718 64.828 14.7718 64.316C14.7718 63.652 14.8838 63.064 15.1078 62.552C15.3398 62.04 15.6438 61.608 16.0198 61.256C16.3958 60.904 16.8078 60.64 17.2558 60.464C17.7118 60.28 18.1598 60.188 18.5998 60.188C19.1998 60.188 19.7358 60.296 20.2078 60.512C20.6878 60.728 21.0958 61.02 21.4318 61.388C21.7678 61.756 22.0238 62.176 22.1998 62.648C22.3758 63.112 22.4638 63.596 22.4638 64.1C22.4638 64.764 22.3478 65.352 22.1158 65.864C21.8838 66.376 21.5758 66.808 21.1918 67.16C20.8078 67.512 20.3878 67.78 19.9318 67.964C19.4838 68.148 19.0398 68.24 18.5998 68.24ZM18.5878 67.712C19.1558 67.712 19.6198 67.544 19.9798 67.208C20.3398 66.872 20.6038 66.432 20.7718 65.888C20.9478 65.336 21.0358 64.74 21.0358 64.1C21.0358 63.5 20.9438 62.944 20.7598 62.432C20.5838 61.912 20.3158 61.496 19.9558 61.184C19.5958 60.864 19.1398 60.704 18.5878 60.704C18.0278 60.704 17.5678 60.872 17.2078 61.208C16.8558 61.536 16.5958 61.972 16.4278 62.516C16.2598 63.052 16.1758 63.64 16.1758 64.28C16.1758 64.88 16.2598 65.444 16.4278 65.972C16.6038 66.492 16.8718 66.912 17.2318 67.232C17.5918 67.552 18.0438 67.712 18.5878 67.712ZM89.1052 68.036C89.0332 68.036 88.9812 68.008 88.9492 67.952C88.9172 67.896 88.9012 67.836 88.9012 67.772C88.9092 67.636 88.9412 67.56 88.9972 67.544C89.0532 67.528 89.1212 67.52 89.2012 67.52C89.4572 67.52 89.6372 67.476 89.7412 67.388C89.8452 67.292 89.9092 67.176 89.9332 67.04C89.9652 66.896 89.9812 66.748 89.9812 66.596V61.832C89.9812 61.68 89.9652 61.536 89.9332 61.4C89.9092 61.256 89.8452 61.14 89.7412 61.052C89.6372 60.956 89.4572 60.908 89.2012 60.908C89.1212 60.908 89.0532 60.9 88.9972 60.884C88.9412 60.868 88.9092 60.792 88.9012 60.656C88.9012 60.592 88.9172 60.532 88.9492 60.476C88.9812 60.42 89.0332 60.392 89.1052 60.392C89.3692 60.4 89.6132 60.408 89.8372 60.416C90.0612 60.424 90.2932 60.428 90.5332 60.428H94.3012C94.3892 60.428 94.4612 60.448 94.5172 60.488C94.5812 60.528 94.6132 60.604 94.6132 60.716L94.6492 62.396C94.6492 62.476 94.6092 62.536 94.5292 62.576C94.4572 62.616 94.3892 62.636 94.3252 62.636C94.2372 62.636 94.1572 62.62 94.0852 62.588C94.0132 62.548 93.9692 62.492 93.9532 62.42C93.8972 62.06 93.8292 61.772 93.7492 61.556C93.6772 61.332 93.5652 61.172 93.4132 61.076C93.2692 60.972 93.0572 60.916 92.7772 60.908H91.1692V63.956H93.3412C93.4052 63.964 93.4492 63.996 93.4732 64.052C93.5052 64.108 93.5212 64.168 93.5212 64.232C93.5212 64.288 93.5052 64.344 93.4732 64.4C93.4492 64.448 93.4052 64.472 93.3412 64.472H91.1692V66.74C91.1772 66.844 91.1932 66.96 91.2172 67.088C91.2412 67.208 91.3092 67.312 91.4212 67.4C91.5412 67.488 91.7372 67.528 92.0092 67.52H93.1132C93.3932 67.512 93.6052 67.468 93.7492 67.388C93.9012 67.3 94.0212 67.156 94.1092 66.956C94.1972 66.756 94.2932 66.48 94.3972 66.128C94.4292 66.048 94.4812 65.996 94.5532 65.972C94.6332 65.948 94.7172 65.944 94.8052 65.96C94.8692 65.968 94.9332 65.996 94.9972 66.044C95.0692 66.092 95.1012 66.156 95.0932 66.236L94.8532 67.748C94.8292 67.86 94.7892 67.932 94.7332 67.964C94.6852 67.988 94.6092 68 94.5052 68H90.5452C90.3052 68 90.0692 68 89.8372 68C89.6132 68.008 89.3692 68.02 89.1052 68.036ZM96.8542 68.036C96.7742 68.036 96.7182 68.008 96.6862 67.952C96.6542 67.896 96.6382 67.836 96.6382 67.772C96.6462 67.636 96.6782 67.56 96.7342 67.544C96.7902 67.528 96.8582 67.52 96.9382 67.52C97.1942 67.52 97.3702 67.476 97.4662 67.388C97.5702 67.292 97.6342 67.176 97.6582 67.04C97.6822 66.896 97.6942 66.748 97.6942 66.596L97.7182 61.832C97.7182 61.456 97.6542 61.216 97.5262 61.112C97.3982 61.008 97.1942 60.928 96.9142 60.872C96.7942 60.848 96.7142 60.828 96.6742 60.812C96.6342 60.788 96.6142 60.716 96.6142 60.596C96.6142 60.46 96.6622 60.388 96.7582 60.38C96.8542 60.364 96.9662 60.356 97.0942 60.356C97.5422 60.356 97.9022 60.392 98.1742 60.464C98.4542 60.536 98.6982 60.664 98.9062 60.848C99.1222 61.032 99.3542 61.292 99.6022 61.628L102.89 65.948H102.926L102.902 61.832C102.902 61.68 102.89 61.536 102.866 61.4C102.842 61.256 102.778 61.14 102.674 61.052C102.578 60.956 102.402 60.908 102.146 60.908C102.066 60.908 101.998 60.9 101.942 60.884C101.886 60.868 101.85 60.792 101.834 60.656C101.834 60.592 101.85 60.532 101.882 60.476C101.922 60.42 101.978 60.392 102.05 60.392C102.226 60.4 102.366 60.408 102.47 60.416C102.582 60.416 102.69 60.42 102.794 60.428C102.906 60.428 103.042 60.428 103.202 60.428C103.362 60.428 103.494 60.428 103.598 60.428C103.702 60.42 103.806 60.416 103.91 60.416C104.022 60.408 104.162 60.4 104.33 60.392C104.41 60.392 104.466 60.42 104.498 60.476C104.53 60.532 104.546 60.592 104.546 60.656C104.538 60.792 104.506 60.868 104.45 60.884C104.402 60.9 104.334 60.908 104.246 60.908C103.998 60.908 103.822 60.956 103.718 61.052C103.614 61.14 103.55 61.256 103.526 61.4C103.51 61.536 103.498 61.68 103.49 61.832L103.466 67.88C103.458 67.944 103.418 67.984 103.346 68C103.282 68.024 103.222 68.036 103.166 68.036C103.014 68.036 102.898 67.984 102.818 67.88L98.2942 61.832H98.2582L98.2822 66.596C98.2902 66.748 98.3022 66.896 98.3182 67.04C98.3422 67.176 98.4062 67.292 98.5102 67.388C98.6142 67.476 98.7902 67.52 99.0382 67.52C99.1262 67.52 99.1982 67.528 99.2542 67.544C99.3102 67.56 99.3422 67.636 99.3502 67.772C99.3502 67.836 99.3302 67.896 99.2902 67.952C99.2582 68.008 99.2062 68.036 99.1342 68.036C98.9662 68.028 98.8222 68.02 98.7022 68.012C98.5902 68.012 98.4782 68.008 98.3662 68C98.2622 68 98.1302 68 97.9702 68C97.8102 68 97.6782 68 97.5742 68C97.4782 68.008 97.3782 68.012 97.2742 68.012C97.1702 68.02 97.0302 68.028 96.8542 68.036Z" fill="white"/>
<path d="M26.98 68.12L24.988 61.88C24.86 61.552 24.732 61.316 24.604 61.172C24.476 61.028 24.284 60.932 24.028 60.884C23.916 60.86 23.836 60.84 23.788 60.824C23.748 60.808 23.728 60.736 23.728 60.608C23.728 60.472 23.776 60.4 23.872 60.392C23.968 60.376 24.08 60.368 24.208 60.368C24.744 60.376 25.16 60.476 25.456 60.668C25.752 60.852 25.988 61.172 26.164 61.628L27.532 66.02H27.58L29.044 60.428H29.668L31.624 66.02H31.66L33.016 61.496C33.08 61.24 33.076 61.08 33.004 61.016C32.94 60.944 32.768 60.908 32.488 60.908C32.408 60.908 32.34 60.9 32.284 60.884C32.228 60.868 32.196 60.792 32.188 60.656C32.188 60.592 32.204 60.532 32.236 60.476C32.268 60.42 32.32 60.392 32.392 60.392C32.648 60.4 32.868 60.408 33.052 60.416C33.244 60.424 33.46 60.428 33.7 60.428C33.86 60.428 33.992 60.428 34.096 60.428C34.2 60.42 34.304 60.416 34.408 60.416C34.52 60.408 34.66 60.4 34.828 60.392C34.908 60.392 34.964 60.42 34.996 60.476C35.028 60.532 35.044 60.592 35.044 60.656C35.036 60.792 35.004 60.868 34.948 60.884C34.9 60.9 34.832 60.908 34.744 60.908C34.44 60.908 34.188 60.968 33.988 61.088C33.796 61.2 33.656 61.412 33.568 61.724L31.6 68.12H31.036L29.092 62.396L27.544 68.12H26.98ZM36.0497 68.036C35.9777 68.036 35.9257 68.008 35.8937 67.952C35.8617 67.896 35.8457 67.836 35.8457 67.772C35.8537 67.636 35.8857 67.56 35.9417 67.544C35.9977 67.528 36.0657 67.52 36.1457 67.52C36.4017 67.52 36.5817 67.476 36.6857 67.388C36.7897 67.292 36.8537 67.176 36.8777 67.04C36.9097 66.896 36.9257 66.748 36.9257 66.596V61.832C36.9257 61.68 36.9097 61.536 36.8777 61.4C36.8537 61.256 36.7897 61.14 36.6857 61.052C36.5817 60.956 36.4017 60.908 36.1457 60.908C36.0657 60.908 35.9977 60.9 35.9417 60.884C35.8857 60.868 35.8537 60.792 35.8457 60.656C35.8457 60.592 35.8617 60.532 35.8937 60.476C35.9257 60.42 35.9777 60.392 36.0497 60.392C36.3137 60.4 36.5577 60.408 36.7817 60.416C37.0057 60.424 37.2377 60.428 37.4777 60.428H41.2457C41.3337 60.428 41.4057 60.448 41.4617 60.488C41.5257 60.528 41.5577 60.604 41.5577 60.716L41.5937 62.396C41.5937 62.476 41.5537 62.536 41.4737 62.576C41.4017 62.616 41.3337 62.636 41.2697 62.636C41.1817 62.636 41.1017 62.62 41.0297 62.588C40.9577 62.548 40.9137 62.492 40.8977 62.42C40.8417 62.06 40.7737 61.772 40.6937 61.556C40.6217 61.332 40.5097 61.172 40.3577 61.076C40.2137 60.972 40.0017 60.916 39.7217 60.908H38.1137V63.956H40.2857C40.3497 63.964 40.3937 63.996 40.4177 64.052C40.4497 64.108 40.4657 64.168 40.4657 64.232C40.4657 64.288 40.4497 64.344 40.4177 64.4C40.3937 64.448 40.3497 64.472 40.2857 64.472H38.1137V66.74C38.1217 66.844 38.1377 66.96 38.1617 67.088C38.1857 67.208 38.2537 67.312 38.3657 67.4C38.4857 67.488 38.6817 67.528 38.9537 67.52H40.0577C40.3377 67.512 40.5497 67.468 40.6937 67.388C40.8457 67.3 40.9657 67.156 41.0537 66.956C41.1417 66.756 41.2377 66.48 41.3417 66.128C41.3737 66.048 41.4257 65.996 41.4977 65.972C41.5777 65.948 41.6617 65.944 41.7497 65.96C41.8137 65.968 41.8777 65.996 41.9417 66.044C42.0137 66.092 42.0457 66.156 42.0377 66.236L41.7977 67.748C41.7737 67.86 41.7337 67.932 41.6777 67.964C41.6297 67.988 41.5537 68 41.4497 68H37.4897C37.2497 68 37.0137 68 36.7817 68C36.5577 68.008 36.3137 68.02 36.0497 68.036ZM43.7867 68.036C43.7067 68.036 43.6507 68.008 43.6187 67.952C43.5867 67.896 43.5707 67.836 43.5707 67.772C43.5787 67.636 43.6107 67.56 43.6667 67.544C43.7227 67.528 43.7907 67.52 43.8707 67.52C44.1267 67.52 44.3067 67.476 44.4107 67.388C44.5147 67.292 44.5787 67.176 44.6027 67.04C44.6347 66.896 44.6507 66.748 44.6507 66.596V61.844C44.6507 61.692 44.6347 61.544 44.6027 61.4C44.5787 61.256 44.5147 61.14 44.4107 61.052C44.3067 60.956 44.1267 60.908 43.8707 60.908C43.7907 60.908 43.7227 60.9 43.6667 60.884C43.6107 60.868 43.5787 60.792 43.5707 60.656C43.5707 60.592 43.5867 60.532 43.6187 60.476C43.6507 60.42 43.7067 60.392 43.7867 60.392C44.0427 60.4 44.2827 60.408 44.5067 60.416C44.7387 60.424 44.9747 60.428 45.2147 60.428H47.2787C47.9267 60.436 48.4507 60.536 48.8507 60.728C49.2587 60.92 49.5547 61.164 49.7387 61.46C49.9227 61.756 50.0147 62.064 50.0147 62.384C50.0147 62.808 49.8427 63.208 49.4987 63.584C49.1627 63.96 48.6867 64.228 48.0707 64.388C48.3747 64.868 48.6827 65.352 48.9947 65.84C49.3067 66.32 49.6667 66.772 50.0747 67.196C50.1867 67.284 50.2947 67.356 50.3987 67.412C50.5107 67.468 50.6427 67.504 50.7947 67.52C50.8587 67.528 50.9227 67.54 50.9867 67.556C51.0507 67.564 51.0867 67.636 51.0947 67.772C51.0947 67.836 51.0787 67.896 51.0467 67.952C51.0147 68.008 50.9587 68.036 50.8787 68.036C50.7107 68.028 50.5747 68.02 50.4707 68.012C50.3747 68.012 50.2787 68.008 50.1827 68C50.0867 68 49.9587 68 49.7987 68C49.4707 67.936 49.1907 67.82 48.9587 67.652C48.7347 67.484 48.5147 67.252 48.2987 66.956C48.0747 66.652 47.8667 66.344 47.6747 66.032C47.4827 65.72 47.2947 65.416 47.1107 65.12C47.0067 64.952 46.8987 64.832 46.7867 64.76C46.6827 64.68 46.4827 64.64 46.1867 64.64H45.8387V66.596C45.8467 66.748 45.8627 66.896 45.8867 67.04C45.9107 67.176 45.9747 67.292 46.0787 67.388C46.1907 67.476 46.3707 67.52 46.6187 67.52C46.6987 67.52 46.7667 67.528 46.8227 67.544C46.8787 67.56 46.9107 67.636 46.9187 67.772C46.9187 67.836 46.9027 67.896 46.8707 67.952C46.8387 68.008 46.7827 68.036 46.7027 68.036C46.1907 68.012 45.6907 68 45.2027 68C44.9627 68 44.7307 68 44.5067 68C44.2827 68.008 44.0427 68.02 43.7867 68.036ZM45.8387 64.172H46.8947C47.3027 64.172 47.6227 64.116 47.8547 64.004C48.0947 63.892 48.2747 63.748 48.3947 63.572C48.5147 63.396 48.5907 63.212 48.6227 63.02C48.6627 62.828 48.6827 62.652 48.6827 62.492C48.6827 62.228 48.6227 61.972 48.5027 61.724C48.3907 61.476 48.1867 61.272 47.8907 61.112C47.6027 60.952 47.1987 60.872 46.6787 60.872C46.3347 60.872 46.1067 60.94 45.9947 61.076C45.8907 61.204 45.8387 61.468 45.8387 61.868V64.172ZM55.7093 68.036C55.6293 68.036 55.5733 68.008 55.5413 67.952C55.5093 67.896 55.4933 67.836 55.4933 67.772C55.5013 67.636 55.5333 67.56 55.5893 67.544C55.6453 67.528 55.7133 67.52 55.7933 67.52C56.0493 67.52 56.2293 67.476 56.3333 67.388C56.4373 67.292 56.5013 67.176 56.5253 67.04C56.5573 66.896 56.5733 66.748 56.5733 66.596V61.832C56.5733 61.68 56.5573 61.536 56.5253 61.4C56.5013 61.256 56.4373 61.14 56.3333 61.052C56.2293 60.956 56.0493 60.908 55.7933 60.908C55.7133 60.908 55.6453 60.9 55.5893 60.884C55.5333 60.868 55.5013 60.792 55.4933 60.656C55.4933 60.592 55.5093 60.532 55.5413 60.476C55.5733 60.42 55.6293 60.392 55.7093 60.392C55.9653 60.4 56.2053 60.408 56.4293 60.416C56.6533 60.424 56.8853 60.428 57.1253 60.428C57.6133 60.428 58.1133 60.416 58.6253 60.392C58.7053 60.392 58.7613 60.42 58.7933 60.476C58.8253 60.532 58.8413 60.592 58.8413 60.656C58.8333 60.792 58.8013 60.868 58.7453 60.884C58.6973 60.9 58.6293 60.908 58.5413 60.908C58.2933 60.908 58.1133 60.956 58.0013 61.052C57.8973 61.14 57.8333 61.256 57.8093 61.4C57.7853 61.536 57.7693 61.68 57.7613 61.832V63.956H61.5293V61.832C61.5293 61.68 61.5133 61.536 61.4813 61.4C61.4573 61.256 61.3933 61.14 61.2893 61.052C61.1853 60.956 61.0053 60.908 60.7493 60.908C60.6693 60.908 60.5973 60.9 60.5333 60.884C60.4773 60.868 60.4453 60.792 60.4373 60.656C60.4373 60.592 60.4533 60.532 60.4853 60.476C60.5253 60.42 60.5813 60.392 60.6533 60.392C61.1733 60.416 61.6733 60.428 62.1533 60.428C62.3933 60.428 62.6253 60.424 62.8493 60.416C63.0813 60.408 63.3253 60.4 63.5813 60.392C63.6533 60.392 63.7053 60.42 63.7373 60.476C63.7773 60.532 63.7973 60.592 63.7973 60.656C63.7893 60.792 63.7573 60.868 63.7013 60.884C63.6453 60.9 63.5773 60.908 63.4973 60.908C63.2493 60.908 63.0693 60.956 62.9573 61.052C62.8453 61.14 62.7773 61.256 62.7533 61.4C62.7293 61.536 62.7133 61.68 62.7053 61.832V66.596C62.7133 66.748 62.7293 66.896 62.7533 67.04C62.7773 67.176 62.8453 67.292 62.9573 67.388C63.0693 67.476 63.2493 67.52 63.4973 67.52C63.5773 67.52 63.6453 67.528 63.7013 67.544C63.7573 67.56 63.7893 67.636 63.7973 67.772C63.7973 67.836 63.7773 67.896 63.7373 67.952C63.7053 68.008 63.6533 68.036 63.5813 68.036C63.3253 68.02 63.0813 68.008 62.8493 68C62.6173 68 62.3813 68 62.1413 68C61.6693 68 61.1733 68.012 60.6533 68.036C60.5813 68.036 60.5253 68.008 60.4853 67.952C60.4533 67.896 60.4373 67.836 60.4373 67.772C60.4453 67.636 60.4773 67.56 60.5333 67.544C60.5973 67.528 60.6693 67.52 60.7493 67.52C61.0053 67.52 61.1853 67.476 61.2893 67.388C61.3933 67.292 61.4573 67.176 61.4813 67.04C61.5133 66.896 61.5293 66.748 61.5293 66.596V64.472H57.7613V66.596C57.7693 66.748 57.7853 66.896 57.8093 67.04C57.8333 67.176 57.8973 67.292 58.0013 67.388C58.1133 67.476 58.2933 67.52 58.5413 67.52C58.6293 67.52 58.6973 67.528 58.7453 67.544C58.8013 67.56 58.8333 67.636 58.8413 67.772C58.8413 67.836 58.8253 67.896 58.7933 67.952C58.7613 68.008 58.7053 68.036 58.6253 68.036C58.1133 68.012 57.6173 68 57.1373 68C56.8973 68 56.6613 68 56.4293 68C56.2053 68.008 55.9653 68.02 55.7093 68.036ZM65.6255 68.036C65.5535 68.036 65.5015 68.008 65.4695 67.952C65.4375 67.896 65.4215 67.836 65.4215 67.772C65.4295 67.636 65.4615 67.56 65.5175 67.544C65.5735 67.528 65.6415 67.52 65.7215 67.52C65.9775 67.52 66.1575 67.476 66.2615 67.388C66.3655 67.292 66.4295 67.176 66.4535 67.04C66.4855 66.896 66.5015 66.748 66.5015 66.596V61.832C66.5015 61.68 66.4855 61.536 66.4535 61.4C66.4295 61.256 66.3655 61.14 66.2615 61.052C66.1575 60.956 65.9775 60.908 65.7215 60.908C65.6415 60.908 65.5735 60.9 65.5175 60.884C65.4615 60.868 65.4295 60.792 65.4215 60.656C65.4215 60.592 65.4375 60.532 65.4695 60.476C65.5015 60.42 65.5535 60.392 65.6255 60.392C65.8895 60.4 66.1335 60.408 66.3575 60.416C66.5815 60.424 66.8135 60.428 67.0535 60.428H70.8215C70.9095 60.428 70.9815 60.448 71.0375 60.488C71.1015 60.528 71.1335 60.604 71.1335 60.716L71.1695 62.396C71.1695 62.476 71.1295 62.536 71.0495 62.576C70.9775 62.616 70.9095 62.636 70.8455 62.636C70.7575 62.636 70.6775 62.62 70.6055 62.588C70.5335 62.548 70.4895 62.492 70.4735 62.42C70.4175 62.06 70.3495 61.772 70.2695 61.556C70.1975 61.332 70.0855 61.172 69.9335 61.076C69.7895 60.972 69.5775 60.916 69.2975 60.908H67.6895V63.956H69.8615C69.9255 63.964 69.9695 63.996 69.9935 64.052C70.0255 64.108 70.0415 64.168 70.0415 64.232C70.0415 64.288 70.0255 64.344 69.9935 64.4C69.9695 64.448 69.9255 64.472 69.8615 64.472H67.6895V66.74C67.6975 66.844 67.7135 66.96 67.7375 67.088C67.7615 67.208 67.8295 67.312 67.9415 67.4C68.0615 67.488 68.2575 67.528 68.5295 67.52H69.6335C69.9135 67.512 70.1255 67.468 70.2695 67.388C70.4215 67.3 70.5415 67.156 70.6295 66.956C70.7175 66.756 70.8135 66.48 70.9175 66.128C70.9495 66.048 71.0015 65.996 71.0735 65.972C71.1535 65.948 71.2375 65.944 71.3255 65.96C71.3895 65.968 71.4535 65.996 71.5175 66.044C71.5895 66.092 71.6215 66.156 71.6135 66.236L71.3735 67.748C71.3495 67.86 71.3095 67.932 71.2535 67.964C71.2055 67.988 71.1295 68 71.0255 68H67.0655C66.8255 68 66.5895 68 66.3575 68C66.1335 68.008 65.8895 68.02 65.6255 68.036ZM72.7025 68.036C72.6225 68.036 72.5665 68.008 72.5345 67.952C72.5025 67.896 72.4865 67.836 72.4865 67.772C72.4945 67.636 72.5265 67.56 72.5825 67.544C72.6385 67.528 72.7065 67.52 72.7865 67.52C73.0025 67.52 73.1665 67.476 73.2785 67.388C73.3905 67.3 73.4785 67.184 73.5425 67.04C73.6145 66.896 73.6825 66.748 73.7465 66.596L75.8465 61.628C75.9265 61.436 75.9425 61.292 75.8945 61.196C75.8465 61.092 75.7665 61.02 75.6545 60.98C75.5425 60.932 75.4185 60.896 75.2825 60.872C75.1625 60.848 75.0825 60.828 75.0425 60.812C75.0025 60.788 74.9825 60.716 74.9825 60.596C74.9825 60.46 75.0305 60.388 75.1265 60.38C75.2225 60.364 75.3345 60.356 75.4625 60.356C75.7905 60.356 76.0705 60.388 76.3025 60.452C76.5345 60.516 76.7345 60.64 76.9025 60.824C77.0705 61 77.2265 61.268 77.3705 61.628L79.3865 66.596C79.4425 66.732 79.5025 66.872 79.5665 67.016C79.6305 67.16 79.7145 67.28 79.8185 67.376C79.9305 67.464 80.0705 67.512 80.2385 67.52C80.3265 67.52 80.3945 67.528 80.4425 67.544C80.4985 67.56 80.5305 67.636 80.5385 67.772C80.5385 67.836 80.5185 67.896 80.4785 67.952C80.4465 68.008 80.3945 68.036 80.3225 68.036C80.0665 68.02 79.8425 68.008 79.6505 68C79.4585 68 79.2425 68 79.0025 68C78.5305 68 78.0345 68.012 77.5145 68.036C77.4345 68.036 77.3785 68.008 77.3465 67.952C77.3145 67.896 77.2985 67.836 77.2985 67.772C77.3065 67.636 77.3385 67.56 77.3945 67.544C77.4505 67.528 77.5185 67.52 77.5985 67.52C77.9905 67.52 78.2025 67.448 78.2345 67.304C78.2745 67.16 78.2385 66.924 78.1265 66.596L77.7185 65.6H74.7545C74.6345 65.904 74.5465 66.124 74.4905 66.26C74.4425 66.396 74.4105 66.484 74.3945 66.524C74.3865 66.564 74.3785 66.588 74.3705 66.596C74.2825 66.868 74.2345 67.072 74.2265 67.208C74.2265 67.336 74.2905 67.42 74.4185 67.46C74.5545 67.5 74.7785 67.52 75.0905 67.52C75.1785 67.52 75.2465 67.528 75.2945 67.544C75.3505 67.56 75.3825 67.636 75.3905 67.772C75.3905 67.836 75.3705 67.896 75.3305 67.952C75.2985 68.008 75.2465 68.036 75.1745 68.036C74.9185 68.02 74.6945 68.008 74.5025 68C74.3185 68 74.1065 68 73.8665 68C73.7065 68 73.5705 68 73.4585 68C73.3545 68.008 73.2465 68.012 73.1345 68.012C73.0225 68.02 72.8785 68.028 72.7025 68.036ZM74.9825 65.084H77.5025L76.2905 62H76.2545L74.9825 65.084ZM83.6519 68.12C83.6519 68.12 83.6079 68.008 83.5199 67.784C83.4399 67.552 83.3319 67.252 83.1959 66.884C83.0679 66.508 82.9199 66.1 82.7519 65.66C82.5919 65.212 82.4279 64.768 82.2599 64.328C82.0999 63.88 81.9519 63.472 81.8159 63.104C81.6879 62.736 81.5799 62.44 81.4919 62.216C81.4119 61.992 81.3719 61.88 81.3719 61.88C81.2439 61.552 81.1159 61.316 80.9879 61.172C80.8599 61.028 80.6679 60.932 80.4119 60.884C80.2999 60.86 80.2199 60.84 80.1719 60.824C80.1319 60.808 80.1119 60.736 80.1119 60.608C80.1119 60.472 80.1599 60.4 80.2559 60.392C80.3519 60.376 80.4639 60.368 80.5919 60.368C81.1279 60.376 81.5439 60.476 81.8399 60.668C82.1359 60.852 82.3719 61.172 82.5479 61.628L84.2879 66.308H84.3239L85.9799 61.496C86.0679 61.24 86.0719 61.08 85.9919 61.016C85.9119 60.944 85.7319 60.908 85.4519 60.908C85.3719 60.908 85.3039 60.9 85.2479 60.884C85.1919 60.868 85.1599 60.792 85.1519 60.656C85.1519 60.592 85.1679 60.532 85.1999 60.476C85.2319 60.42 85.2839 60.392 85.3559 60.392C85.6119 60.4 85.8319 60.408 86.0159 60.416C86.2079 60.424 86.4239 60.428 86.6639 60.428C86.8239 60.428 86.9559 60.428 87.0599 60.428C87.1639 60.42 87.2679 60.416 87.3719 60.416C87.4839 60.408 87.6239 60.4 87.7919 60.392C87.8719 60.392 87.9279 60.42 87.9599 60.476C87.9919 60.532 88.0079 60.592 88.0079 60.656C87.9999 60.792 87.9679 60.868 87.9119 60.884C87.8639 60.9 87.7959 60.908 87.7079 60.908C87.4039 60.908 87.1639 60.964 86.9879 61.076C86.8119 61.188 86.6599 61.404 86.5319 61.724C86.5319 61.716 86.4879 61.828 86.3999 62.06C86.3199 62.284 86.2119 62.588 86.0759 62.972C85.9399 63.348 85.7879 63.764 85.6199 64.22C85.4599 64.676 85.2959 65.132 85.1279 65.588C84.9599 66.044 84.8079 66.464 84.6719 66.848C84.5359 67.232 84.4239 67.54 84.3359 67.772C84.2559 68.004 84.2159 68.12 84.2159 68.12H83.6519Z" fill="black"/>
</svg>
