<svg width="142" height="32" viewBox="0 0 142 32" fill="none" xmlns="http://www.w3.org/2000/svg">
<path d="M83.4902 1H68.4902C64.3481 1 60.9902 4.35786 60.9902 8.5V23.5C60.9902 27.6421 64.3481 31 68.4902 31H83.4902C87.6324 31 90.9902 27.6421 90.9902 23.5V8.5C90.9902 4.35786 87.6324 1 83.4902 1Z" stroke="black" stroke-width="2" stroke-linecap="round" stroke-linejoin="round"/>
<path d="M81.9908 15.0545C82.1759 16.3028 81.9627 17.5778 81.3814 18.698C80.8002 19.8182 79.8805 20.7266 78.7532 21.294C77.6259 21.8614 76.3484 22.0589 75.1025 21.8584C73.8565 21.6579 72.7054 21.0696 71.813 20.1772C70.9206 19.2848 70.3324 18.1338 70.1319 16.8878C69.9314 15.6418 70.1289 14.3643 70.6963 13.237C71.2637 12.1098 72.1721 11.1901 73.2922 10.6088C74.4124 10.0276 75.6874 9.81436 76.9358 9.99948C78.2092 10.1883 79.388 10.7817 80.2983 11.6919C81.2086 12.6022 81.8019 13.7811 81.9908 15.0545Z" stroke="black" stroke-width="2" stroke-linecap="round" stroke-linejoin="round"/>
<path d="M84.2402 7.75H84.2552" stroke="black" stroke-width="2" stroke-linecap="round" stroke-linejoin="round"/>
<path d="M30.9902 6.01401C29.6844 6.95512 28.2386 7.67491 26.7084 8.14568C25.8872 7.18087 24.7957 6.49704 23.5816 6.18667C22.3676 5.8763 21.0895 5.95437 19.9203 6.41032C18.7511 6.86628 17.7472 7.67811 17.0443 8.73602C16.3414 9.79394 15.9735 11.0469 15.9902 12.3254V13.7187C13.5938 13.7822 11.2192 13.2391 9.07797 12.138C6.9367 11.0368 5.09521 9.41163 3.71751 7.40726C3.71751 7.40726 -1.73704 19.9465 10.5357 25.5195C7.72732 27.4672 4.38181 28.4438 0.990234 28.306C13.263 35.2722 28.263 28.306 28.263 12.2836C28.2617 11.8955 28.2252 11.5084 28.1539 11.1272C29.5456 9.72492 30.5277 7.9544 30.9902 6.01401V6.01401Z" stroke="black" stroke-width="2" stroke-linecap="round" stroke-linejoin="round"/>
<path d="M140.99 1H135.536C133.125 1 130.812 1.79018 129.107 3.1967C127.403 4.60322 126.445 6.51088 126.445 8.5V13H120.99V19H126.445V31H133.718V19H139.172L140.99 13H133.718V8.5C133.718 8.10218 133.909 7.72064 134.25 7.43934C134.591 7.15804 135.053 7 135.536 7H140.99V1Z" stroke="black" stroke-width="2" stroke-linecap="round" stroke-linejoin="round"/>
</svg>
