<svg width="175" height="104" viewBox="0 0 175 104" fill="none" xmlns="http://www.w3.org/2000/svg">
<path d="M86.1317 52.837C81.6806 52.8831 81.2401 54.9657 83.3316 61.5492M86.1317 52.837C80.0665 53.4538 80.9048 55.8761 72.5045 58.7127M86.1317 52.837C85.5567 55.6059 86.5517 56.5292 87.796 57.9022M86.1317 52.837C88.5943 52.5791 89.6736 51.7617 90.9852 48.9872M86.1317 52.837C83.8299 52.9099 81.7095 53.0169 79.7848 53.0856M68.5844 51.2161C67.2691 52.3842 66.2896 53.2107 65.1955 53.7465C63.8189 54.4206 62.6533 55.6541 62.1339 57.0962C61.7983 58.0281 61.3381 58.8558 60.9308 59.6823M68.5844 51.2161C61.4107 43.6952 57.2038 40.1673 47.4904 42.0985M68.5844 51.2161C63.1098 46.5777 58.9274 46.1969 48.6104 51.2161M68.5844 51.2161C70.604 53.1706 74.4396 53.2762 79.7848 53.0856M68.5844 51.2161C66.3879 48.47 65.6426 47.1607 65.5977 45.4338M87.796 57.9022C89.0398 59.2747 90.5328 61.0966 90.9556 65.6606C90.9768 65.8895 90.9698 66.1222 90.9267 66.348C90.4632 68.7751 89.1718 70.1869 88.2414 71.8245C87.4073 73.2925 85.8649 74.5329 84.1765 74.5455C80.5941 74.5722 77.584 75.1982 76.4872 73.6761C75.7554 72.6606 75.2393 71.4248 74.214 70.7068C73.6023 70.2784 73.2529 69.8396 73.1751 69.35C73.0945 68.8433 72.5311 68.1297 72.043 68.2878C69.1984 69.2089 67.4525 69.0111 66.1577 68.2944M87.796 57.9022C90.7323 58.1076 93.2954 58.6943 95.3159 59.6823M66.1577 68.2944C64.3931 67.3178 63.4662 65.3777 61.7382 63.993C60.7823 63.2271 59.9519 62.1374 60.3637 60.9839C60.5219 60.5407 60.7192 60.1117 60.9308 59.6823M66.1577 68.2944C61.8583 75.7251 67.0438 76.1482 71.9146 79.4934C73.08 80.2937 74.6289 80.3982 75.8592 79.7018C81.1312 76.7174 85.618 77.0668 92.7541 78.867C93.9417 79.1666 95.2098 78.7415 95.9027 77.7314C99.8321 72.0034 100.849 67.587 99.7763 64.3857M60.9308 59.6823C55.6518 57.0494 48.5482 61.0392 45.0926 57.6022C44.6655 57.1774 44.5092 56.5642 44.4844 55.9623C44.2186 49.5175 41.3795 46.4888 47.4904 42.0985M47.4904 42.0985L47.0501 41.5337C46.1264 40.3488 46.2133 38.654 47.3107 37.6278C47.7569 37.2106 48.1899 36.8217 48.6104 36.461M99.7763 64.3857C107.039 59.6823 116.933 66.0067 118.799 52.837M99.7763 64.3857C99.0847 62.3213 97.5243 60.7621 95.3159 59.6823M118.799 52.837C113.573 52.837 110.772 47.9741 104.239 54.4578M118.799 52.837C122.782 52.0851 125.479 47.6731 121.977 43.804C121.537 43.3187 121.574 42.5387 122.053 42.0928C126.768 37.7066 115.574 36.5484 114.693 35.2096M114.693 35.2096C112.639 44.3271 104.986 39.667 104.986 44.3271M114.693 35.2096C118.211 29.3156 120.38 23.3447 114.693 21.8096M114.693 35.2096C110.399 34.3992 107.07 28.9634 102.186 35.2096M106.106 19.811C107.727 18.0848 108.949 17.4216 110.923 17.5391C111.837 17.5935 112.363 18.5552 112.054 19.4173V19.4173C111.703 20.3986 112.434 21.423 113.467 21.5656C113.911 21.6269 114.319 21.7087 114.693 21.8096M106.106 19.811C104.239 23.458 106.049 29.9875 102.186 35.2096M106.106 19.811C104.986 10.4908 102.371 11.4547 98.8254 15.9614M102.186 35.2096C99.867 41.0141 98.0106 44.3499 94.7186 46.8099M102.186 35.2096C103.176 29.8676 100.692 28.3207 99.7763 23.0528M102.186 35.2096C106.555 28.8219 108.99 25.3857 112.639 26.102M90.9852 48.9872C92.4251 48.3175 93.6478 47.61 94.7186 46.8099M90.9852 48.9872C92.1838 41.0947 93.7929 37.2861 95.3159 34.6213M90.9852 48.9872C91.1228 43.1392 86.3216 41.2881 81.9943 42.9088M94.7186 46.8099C99.5772 45.3961 101.812 43.6589 107.952 44.6341C108.336 44.695 108.729 44.8149 108.988 45.1039C110.022 46.2579 107.965 47.6241 107.377 49.9945C107.213 50.6557 106.673 51.2161 105.992 51.2161V51.2161C105.406 51.2161 104.902 51.6317 104.776 52.2037C103.927 56.0429 103.071 58.0072 101.672 58.4554C100.104 58.9573 98.1975 59.3802 96.5686 59.6154C96.2103 59.6672 95.7983 59.6859 95.3159 59.6823M76.0514 48.9872C75.8049 50.9099 76.6105 51.8198 79.7848 53.0856M76.0514 48.9872C70.7277 47.2403 67.4277 43.3274 63.9221 41.0853M76.0514 48.9872C77.2051 45.8934 79.5224 43.8347 81.9943 42.9088M76.0514 48.9872C74.1896 43.0315 71.8136 41.1509 69.5178 39.0382M79.7848 53.0856C73.7828 50.968 69.5178 49.9552 65.5977 45.4338M65.5977 45.4338C63.8221 42.7651 61.4794 40.7387 58.1307 39.4644C60.3088 39.239 62.1419 39.9468 63.9221 41.0853M63.9221 41.0853C63.0304 38.2379 62.705 36.1736 62.9754 33.7912M63.9221 41.0853C59.2539 32.2824 55.672 30.4044 48.6104 36.461M99.7763 23.0528C98.6123 21.2609 98.5823 19.4885 98.8254 15.9614M99.7763 23.0528C99.4694 26.7143 98.7367 28.7933 97.7909 30.5495M62.9754 33.7912C63.1197 32.5195 63.4338 31.157 63.9221 29.5364C65.4276 35.0232 67.4398 37.1258 69.5178 39.0382M62.9754 33.7912C59.4621 30.0078 62.6109 26.6998 61.6775 23.0528M61.6775 23.0528C60.8954 24.3261 59.9286 25.301 58.8774 26.102M61.6775 23.0528C62.0115 18.5982 64.851 20.2163 67.8377 15.9614M48.6104 36.461C48.416 29.77 54.4089 29.507 58.8774 26.102M58.8774 26.102C56.339 14.9292 59.3464 14.2435 61.2617 13.2712C62.5735 12.6052 63.675 11.0241 64.8829 10.1842C65.3641 9.84966 65.8011 9.52275 66.1577 9.33082C67.7868 8.45397 68.9969 7.5919 71.0112 8.46472M71.0112 8.46472C75.1364 -3.60478 79.0892 2.46856 83.8632 2.96318C84.2502 3.00327 84.6318 2.89282 85.015 2.82538C85.4474 2.74927 85.7844 2.82954 86.0866 2.99424M71.0112 8.46472C68.0428 11.8552 67.6172 13.4245 67.8377 15.9614M71.0112 8.46472C77.0642 4.89152 79.5637 5.5199 81.9943 7.60869M114.693 21.8096C115.357 8.67665 108.487 10.2729 107.356 5.22287C107.066 3.92879 106.37 2.55953 105.044 2.55964C101.748 2.55993 100.108 5.83083 96.212 5.83082M96.212 5.83082C100.042 9.31144 100.429 11.5612 98.8254 15.9614M96.212 5.83082C92.8519 6.43865 91.4315 1.81798 89.6784 4.81776M98.8254 15.9614C97.3954 11.6278 96.6065 9.18152 91.7318 9.33082M95.3159 34.6213C96.2027 33.0697 97.0604 31.9059 97.7909 30.5495M95.3159 34.6213C93.8719 33.6659 92.3996 33.1949 90.9852 33.134M81.9943 42.9088C77.876 35.2956 73.8113 39.4644 69.5178 39.0382M81.9943 42.9088C82.4453 37.0285 86.4128 32.9374 90.9852 33.134M81.9943 42.9088C81.052 37.8629 81.0843 33.648 81.694 30.5495M81.9943 42.9088C80.7366 36.1739 78.5013 34.6116 76.0514 33.9549M69.5178 39.0382C68.7622 36.0934 68.8256 34.5559 70.4512 32.1704M97.7909 30.5495C95.8697 28.7277 95.564 26.4201 95.3159 21.8096C93.2252 26.102 90.7335 24.4941 90.9852 33.134M90.9852 33.134C90.068 29.0481 88.7789 26.5561 87.4384 25.4278M91.7318 9.33082L89.6784 14.1379M91.7318 9.33082C92.5031 7.20882 92.0267 6.22775 89.6784 4.81776M89.6784 14.1379C85.9077 11.9801 83.9739 9.30998 81.9943 7.60869M89.6784 14.1379C88.852 15.7389 88.9076 17.3579 88.9719 19.0007M70.4512 32.1704C71.3456 32.8323 72.2932 33.1541 73.2512 33.3746M70.4512 32.1704C70.2853 31.0921 69.9424 30.2499 69.5178 29.5291M89.6784 4.81776C87.6216 4.81776 87.0201 3.50307 86.0866 2.99424M86.0866 2.99424C87.4374 4.25192 87.7373 5.17857 87.4384 7.24917M87.4384 25.4278C87.634 24.632 87.7827 23.9538 87.8542 23.3447C88.0157 21.968 86.5685 22.2093 85.9669 23.4581V23.4581M87.4384 25.4278C86.6891 24.7971 85.9237 24.5924 85.1983 24.7737M87.4384 25.4278C89.1503 23.2383 89.054 21.1001 88.9719 19.0007M67.8377 15.9614C72.5046 13.5301 75.1196 7.31405 81.9943 7.60869M67.8377 15.9614C63.8393 25.4583 67.5529 26.1934 69.5178 29.5291M81.694 30.5495C82.3538 27.1964 83.6897 25.1507 85.1983 24.7737M81.694 30.5495C81.2748 29.5922 81.0084 28.9772 81.3627 27.3473C81.4308 27.034 81.067 26.8397 80.9048 27.1163V27.1163M81.694 30.5495C81.1349 32.2358 80.5494 33.2755 79.6535 33.7912M81.694 30.5495C82.522 25.5583 82.2532 23.5414 78.4781 23.4581M76.0514 33.9549C77.6872 34.2979 78.8085 34.2777 79.6535 33.7912M76.0514 33.9549C75.1347 33.7092 74.188 33.5903 73.2512 33.3746M85.1983 24.7737C85.5138 24.3055 85.764 23.8792 85.9669 23.4581M79.6535 33.7912C79.8701 30.7416 79.4683 29.5726 77.358 28.9287C76.5463 32.2485 77.1909 33.1952 79.6535 33.7912ZM79.6535 33.7912C76.2155 32.9108 74.5049 32.1216 72.3179 29.5364M79.6535 33.7912C79.9179 29.8036 80.2876 28.1691 80.9048 27.1163M72.3179 29.5364C72.1464 31.2675 72.2637 32.1457 73.2512 33.3746M72.3179 29.5364C71.7193 27.0023 71.9298 24.8943 73.0555 21.8096M72.3179 29.5364C73.4193 24.3913 74.839 21.6667 77.2566 19.811M85.9669 23.4581C83.1244 20.2467 81.4967 19.7877 78.4781 23.4581M85.9669 23.4581C86.3227 19.1775 85.6713 17.8799 83.8916 16.3667C86.2466 16.4077 87.418 16.828 88.9719 19.0007M85.9669 23.4581C85.317 19.8129 84.7892 17.9996 81.9943 17.3798M85.9669 23.4581C83.2604 21.3917 82.0916 20.1403 81.9943 17.3798M78.4781 23.4581C80.3151 24.6568 80.9563 25.3731 80.9048 27.1163M78.4781 23.4581C77.9819 23.863 77.6237 24.3095 77.358 24.8065M88.9719 19.0007C88.0021 15.4812 87.2301 13.4568 84.5458 11.9638C83.6964 11.4914 82.6631 11.6334 81.7529 11.974C78.022 13.3697 72.4291 13.1808 73.2512 18.9602M69.5178 29.5291C70.6907 24.2046 71.4861 20.8867 73.2512 18.9602M69.5178 29.5291C68.4397 24.877 67.3786 22.3829 71.7579 16.3667M73.0555 21.8096C73.484 20.6354 74.0451 19.3196 74.7446 17.7849C74.1753 18.0991 73.6841 18.4878 73.2512 18.9602M73.0555 21.8096C76.124 18.0659 78.0308 16.8554 81.9943 17.3798M81.9943 17.3798C80.0736 18.1004 78.5272 18.8357 77.2566 19.811M77.358 24.8065C76.4353 26.5327 76.6311 28.8666 76.0514 32.1704C73.73 27.2757 73.6592 24.5612 77.2566 19.811M77.358 24.8065C76.2302 23.6535 76.3102 22.4848 77.2566 19.811M114.133 55.6735C111.573 53.3741 110.142 53.2914 107.599 55.2683" stroke="white"/>
<path d="M1.2 99.06C1.08 99.06 0.993333 99.0133 0.94 98.92C0.886667 98.8267 0.86 98.7267 0.86 98.62C0.873333 98.3933 0.926667 98.2667 1.02 98.24C1.11333 98.2133 1.22667 98.2 1.36 98.2C1.78667 98.2 2.08667 98.1267 2.26 97.98C2.43333 97.82 2.54 97.6267 2.58 97.4C2.63333 97.16 2.66 96.9133 2.66 96.66V88.72C2.66 88.4667 2.63333 88.2267 2.58 88C2.54 87.76 2.43333 87.5667 2.26 87.42C2.08667 87.26 1.78667 87.18 1.36 87.18C1.22667 87.18 1.11333 87.1667 1.02 87.14C0.926667 87.1133 0.873333 86.9867 0.86 86.76C0.86 86.6533 0.886667 86.5533 0.94 86.46C0.993333 86.3667 1.08 86.32 1.2 86.32C1.62667 86.3333 2.02667 86.3467 2.4 86.36C2.78667 86.3733 3.18 86.38 3.58 86.38H9.36C9.50667 86.38 9.62667 86.4133 9.72 86.48C9.82667 86.5467 9.88 86.6733 9.88 86.86L9.94 89.66C9.94 89.7933 9.87333 89.8933 9.74 89.96C9.62 90.0267 9.50667 90.06 9.4 90.06C9.25333 90.06 9.11333 90.0333 8.98 89.98C8.86 89.9133 8.78667 89.82 8.76 89.7C8.68 89.1 8.57333 88.62 8.44 88.26C8.32 87.8867 8.13333 87.62 7.88 87.46C7.64 87.2867 7.28667 87.1933 6.82 87.18H4.64V92.38H8.22C8.32667 92.3933 8.40667 92.4467 8.46 92.54C8.51333 92.6333 8.54 92.7333 8.54 92.84C8.54 92.9333 8.51333 93.0267 8.46 93.12C8.40667 93.2 8.32667 93.24 8.22 93.24H4.64V96.66C4.65333 96.9133 4.68 97.16 4.72 97.4C4.76 97.6267 4.86667 97.82 5.04 97.98C5.22667 98.1267 5.52667 98.2 5.94 98.2C6.07333 98.2 6.18667 98.2133 6.28 98.24C6.37333 98.2667 6.42667 98.3933 6.44 98.62C6.44 98.7267 6.41333 98.8267 6.36 98.92C6.30667 99.0133 6.21333 99.06 6.08 99.06C5.22667 99.02 4.4 99 3.6 99C3.2 99 2.80667 99 2.42 99C2.03333 99.0133 1.62667 99.0333 1.2 99.06ZM12.4539 99.06C12.3339 99.06 12.2472 99.0133 12.1939 98.92C12.1406 98.8267 12.1139 98.7267 12.1139 98.62C12.1272 98.3933 12.1806 98.2667 12.2739 98.24C12.3672 98.2133 12.4806 98.2 12.6139 98.2C13.0406 98.2 13.3406 98.1267 13.5139 97.98C13.6872 97.82 13.7939 97.6267 13.8339 97.4C13.8872 97.16 13.9139 96.9133 13.9139 96.66V88.72C13.9139 88.4667 13.8872 88.2267 13.8339 88C13.7939 87.76 13.6872 87.5667 13.5139 87.42C13.3406 87.26 13.0406 87.18 12.6139 87.18C12.4806 87.18 12.3672 87.1667 12.2739 87.14C12.1806 87.1133 12.1272 86.9867 12.1139 86.76C12.1139 86.6533 12.1406 86.5533 12.1939 86.46C12.2472 86.3667 12.3339 86.32 12.4539 86.32C12.8939 86.3333 13.3006 86.3467 13.6739 86.36C14.0472 86.3733 14.4339 86.38 14.8339 86.38C15.6472 86.38 16.4806 86.36 17.3339 86.32C17.4672 86.32 17.5606 86.3667 17.6139 86.46C17.6672 86.5533 17.6939 86.6533 17.6939 86.76C17.6806 86.9867 17.6272 87.1133 17.5339 87.14C17.4406 87.1667 17.3272 87.18 17.1939 87.18C16.7806 87.18 16.4806 87.26 16.2939 87.42C16.1206 87.5667 16.0139 87.76 15.9739 88C15.9339 88.2267 15.9072 88.4667 15.8939 88.72V96.96C15.9072 97.1333 15.9339 97.32 15.9739 97.52C16.0139 97.72 16.1272 97.8867 16.3139 98.02C16.5139 98.1533 16.8406 98.2133 17.2939 98.2H19.0939C19.5606 98.1867 19.9139 98.1133 20.1539 97.98C20.4072 97.8333 20.6072 97.5933 20.7539 97.26C20.9006 96.9267 21.0606 96.4667 21.2339 95.88C21.2872 95.7467 21.3739 95.66 21.4939 95.62C21.6272 95.58 21.7672 95.5733 21.9139 95.6C22.0206 95.6133 22.1272 95.66 22.2339 95.74C22.3539 95.82 22.4072 95.9267 22.3939 96.06L21.9939 98.58C21.9539 98.7667 21.8872 98.8867 21.7939 98.94C21.7139 98.98 21.5872 99 21.4139 99H14.8539C14.4539 99 14.0606 99 13.6739 99C13.3006 99.0133 12.8939 99.0333 12.4539 99.06ZM30.9997 99.4C30.0264 99.4 29.1464 99.22 28.3597 98.86C27.573 98.5 26.8997 98.0133 26.3397 97.4C25.7797 96.7867 25.353 96.0933 25.0597 95.32C24.7664 94.5333 24.6197 93.7133 24.6197 92.86C24.6197 91.7533 24.8064 90.7733 25.1797 89.92C25.5664 89.0667 26.073 88.3467 26.6997 87.76C27.3264 87.1733 28.013 86.7333 28.7597 86.44C29.5197 86.1333 30.2664 85.98 30.9997 85.98C31.9997 85.98 32.893 86.16 33.6797 86.52C34.4797 86.88 35.1597 87.3667 35.7197 87.98C36.2797 88.5933 36.7064 89.2933 36.9997 90.08C37.293 90.8533 37.4397 91.66 37.4397 92.5C37.4397 93.6067 37.2464 94.5867 36.8597 95.44C36.473 96.2933 35.9597 97.0133 35.3197 97.6C34.6797 98.1867 33.9797 98.6333 33.2197 98.94C32.473 99.2467 31.733 99.4 30.9997 99.4ZM30.9797 98.52C31.9264 98.52 32.6997 98.24 33.2997 97.68C33.8997 97.12 34.3397 96.3867 34.6197 95.48C34.913 94.56 35.0597 93.5667 35.0597 92.5C35.0597 91.5 34.9064 90.5733 34.5997 89.72C34.3064 88.8533 33.8597 88.16 33.2597 87.64C32.6597 87.1067 31.8997 86.84 30.9797 86.84C30.0464 86.84 29.2797 87.12 28.6797 87.68C28.093 88.2267 27.6597 88.9533 27.3797 89.86C27.0997 90.7533 26.9597 91.7333 26.9597 92.8C26.9597 93.8 27.0997 94.74 27.3797 95.62C27.673 96.4867 28.1197 97.1867 28.7197 97.72C29.3197 98.2533 30.073 98.52 30.9797 98.52ZM44.6542 99.2L41.3342 88.8C41.1209 88.2533 40.9076 87.86 40.6942 87.62C40.4809 87.38 40.1609 87.22 39.7342 87.14C39.5476 87.1 39.4142 87.0667 39.3342 87.04C39.2676 87.0133 39.2342 86.8933 39.2342 86.68C39.2342 86.4533 39.3142 86.3333 39.4742 86.32C39.6342 86.2933 39.8209 86.28 40.0342 86.28C40.9276 86.2933 41.6209 86.46 42.1142 86.78C42.6076 87.0867 43.0009 87.62 43.2942 88.38L45.5742 95.7H45.6542L48.0942 86.38H49.1342L52.3942 95.7H52.4542L54.7142 88.16C54.8209 87.7333 54.8142 87.4667 54.6942 87.36C54.5876 87.24 54.3009 87.18 53.8342 87.18C53.7009 87.18 53.5876 87.1667 53.4942 87.14C53.4009 87.1133 53.3476 86.9867 53.3342 86.76C53.3342 86.6533 53.3609 86.5533 53.4142 86.46C53.4676 86.3667 53.5542 86.32 53.6742 86.32C54.1009 86.3333 54.4676 86.3467 54.7742 86.36C55.0942 86.3733 55.4542 86.38 55.8542 86.38C56.1209 86.38 56.3409 86.38 56.5142 86.38C56.6876 86.3667 56.8609 86.36 57.0342 86.36C57.2209 86.3467 57.4542 86.3333 57.7342 86.32C57.8676 86.32 57.9609 86.3667 58.0142 86.46C58.0676 86.5533 58.0942 86.6533 58.0942 86.76C58.0809 86.9867 58.0276 87.1133 57.9342 87.14C57.8542 87.1667 57.7409 87.18 57.5942 87.18C57.0876 87.18 56.6676 87.28 56.3342 87.48C56.0142 87.6667 55.7809 88.02 55.6342 88.54L52.3542 99.2H51.4142L48.1742 89.66L45.5942 99.2H44.6542ZM59.7703 99.06C59.6503 99.06 59.5636 99.0133 59.5103 98.92C59.457 98.8267 59.4303 98.7267 59.4303 98.62C59.4436 98.3933 59.497 98.2667 59.5903 98.24C59.6836 98.2133 59.797 98.2 59.9303 98.2C60.357 98.2 60.657 98.1267 60.8303 97.98C61.0036 97.82 61.1103 97.6267 61.1503 97.4C61.2036 97.16 61.2303 96.9133 61.2303 96.66V88.72C61.2303 88.4667 61.2036 88.2267 61.1503 88C61.1103 87.76 61.0036 87.5667 60.8303 87.42C60.657 87.26 60.357 87.18 59.9303 87.18C59.797 87.18 59.6836 87.1667 59.5903 87.14C59.497 87.1133 59.4436 86.9867 59.4303 86.76C59.4303 86.6533 59.457 86.5533 59.5103 86.46C59.5636 86.3667 59.6503 86.32 59.7703 86.32C60.2103 86.3333 60.617 86.3467 60.9903 86.36C61.3636 86.3733 61.7503 86.38 62.1503 86.38H68.4303C68.577 86.38 68.697 86.4133 68.7903 86.48C68.897 86.5467 68.9503 86.6733 68.9503 86.86L69.0103 89.66C69.0103 89.7933 68.9436 89.8933 68.8103 89.96C68.6903 90.0267 68.577 90.06 68.4703 90.06C68.3236 90.06 68.1903 90.0333 68.0703 89.98C67.9503 89.9133 67.877 89.82 67.8503 89.7C67.757 89.1 67.6436 88.62 67.5103 88.26C67.3903 87.8867 67.2036 87.62 66.9503 87.46C66.7103 87.2867 66.357 87.1933 65.8903 87.18H63.2103V92.26H66.8303C66.937 92.2733 67.0103 92.3267 67.0503 92.42C67.1036 92.5133 67.1303 92.6133 67.1303 92.72C67.1303 92.8133 67.1036 92.9067 67.0503 93C67.0103 93.08 66.937 93.12 66.8303 93.12H63.2103V96.9C63.2236 97.0733 63.2503 97.2667 63.2903 97.48C63.3303 97.68 63.4436 97.8533 63.6303 98C63.8303 98.1467 64.157 98.2133 64.6103 98.2H66.4503C66.917 98.1867 67.2703 98.1133 67.5103 97.98C67.7636 97.8333 67.9636 97.5933 68.1103 97.26C68.257 96.9267 68.417 96.4667 68.5903 95.88C68.6436 95.7467 68.7303 95.66 68.8503 95.62C68.9836 95.58 69.1236 95.5733 69.2703 95.6C69.377 95.6133 69.4836 95.66 69.5903 95.74C69.7103 95.82 69.7636 95.9267 69.7503 96.06L69.3503 98.58C69.3103 98.7667 69.2436 98.8867 69.1503 98.94C69.0703 98.98 68.9436 99 68.7703 99H62.1703C61.7703 99 61.377 99 60.9903 99C60.617 99.0133 60.2103 99.0333 59.7703 99.06ZM72.6653 99.06C72.532 99.06 72.4386 99.0133 72.3853 98.92C72.332 98.8267 72.3053 98.7267 72.3053 98.62C72.3186 98.3933 72.372 98.2667 72.4653 98.24C72.5586 98.2133 72.672 98.2 72.8053 98.2C73.232 98.2 73.532 98.1267 73.7053 97.98C73.8786 97.82 73.9853 97.6267 74.0253 97.4C74.0786 97.16 74.1053 96.9133 74.1053 96.66V88.74C74.1053 88.4867 74.0786 88.24 74.0253 88C73.9853 87.76 73.8786 87.5667 73.7053 87.42C73.532 87.26 73.232 87.18 72.8053 87.18C72.672 87.18 72.5586 87.1667 72.4653 87.14C72.372 87.1133 72.3186 86.9867 72.3053 86.76C72.3053 86.6533 72.332 86.5533 72.3853 86.46C72.4386 86.3667 72.532 86.32 72.6653 86.32C73.092 86.3333 73.492 86.3467 73.8653 86.36C74.252 86.3733 74.6453 86.38 75.0453 86.38H78.4853C79.5653 86.3933 80.4386 86.56 81.1053 86.88C81.7853 87.2 82.2786 87.6067 82.5853 88.1C82.892 88.5933 83.0453 89.1067 83.0453 89.64C83.0453 90.3467 82.7586 91.0133 82.1853 91.64C81.6253 92.2667 80.832 92.7133 79.8053 92.98C80.312 93.78 80.8253 94.5867 81.3453 95.4C81.8653 96.2 82.4653 96.9533 83.1453 97.66C83.332 97.8067 83.512 97.9267 83.6853 98.02C83.872 98.1133 84.092 98.1733 84.3453 98.2C84.452 98.2133 84.5586 98.2333 84.6653 98.26C84.772 98.2733 84.832 98.3933 84.8453 98.62C84.8453 98.7267 84.8186 98.8267 84.7653 98.92C84.712 99.0133 84.6186 99.06 84.4853 99.06C84.2053 99.0467 83.9786 99.0333 83.8053 99.02C83.6453 99.02 83.4853 99.0133 83.3253 99C83.1653 99 82.952 99 82.6853 99C82.1386 98.8933 81.672 98.7 81.2853 98.42C80.912 98.14 80.5453 97.7533 80.1853 97.26C79.812 96.7533 79.4653 96.24 79.1453 95.72C78.8253 95.2 78.512 94.6933 78.2053 94.2C78.032 93.92 77.852 93.72 77.6653 93.6C77.492 93.4667 77.1586 93.4 76.6653 93.4H76.0853V96.66C76.0986 96.9133 76.1253 97.16 76.1653 97.4C76.2053 97.6267 76.312 97.82 76.4853 97.98C76.672 98.1267 76.972 98.2 77.3853 98.2C77.5186 98.2 77.632 98.2133 77.7253 98.24C77.8186 98.2667 77.872 98.3933 77.8853 98.62C77.8853 98.7267 77.8586 98.8267 77.8053 98.92C77.752 99.0133 77.6586 99.06 77.5253 99.06C76.672 99.02 75.8386 99 75.0253 99C74.6253 99 74.2386 99 73.8653 99C73.492 99.0133 73.092 99.0333 72.6653 99.06ZM76.0853 92.62H77.8453C78.5253 92.62 79.0586 92.5267 79.4453 92.34C79.8453 92.1533 80.1453 91.9133 80.3453 91.62C80.5453 91.3267 80.672 91.02 80.7253 90.7C80.792 90.38 80.8253 90.0867 80.8253 89.82C80.8253 89.38 80.7253 88.9533 80.5253 88.54C80.3386 88.1267 79.9986 87.7867 79.5053 87.52C79.0253 87.2533 78.352 87.12 77.4853 87.12C76.912 87.12 76.532 87.2333 76.3453 87.46C76.172 87.6733 76.0853 88.1133 76.0853 88.78V92.62ZM92.5364 99.06C92.4031 99.06 92.3097 99.0133 92.2564 98.92C92.2031 98.8267 92.1764 98.7267 92.1764 98.62C92.1897 98.3933 92.2431 98.2667 92.3364 98.24C92.4297 98.2133 92.5431 98.2 92.6764 98.2C93.1031 98.2 93.4031 98.1267 93.5764 97.98C93.7497 97.82 93.8564 97.6267 93.8964 97.4C93.9497 97.16 93.9764 96.9133 93.9764 96.66V88.72C93.9764 88.4667 93.9497 88.2267 93.8964 88C93.8564 87.76 93.7497 87.5667 93.5764 87.42C93.4031 87.26 93.1031 87.18 92.6764 87.18C92.5431 87.18 92.4297 87.1667 92.3364 87.14C92.2431 87.1133 92.1897 86.9867 92.1764 86.76C92.1764 86.6533 92.2031 86.5533 92.2564 86.46C92.3097 86.3667 92.4031 86.32 92.5364 86.32C92.9631 86.3333 93.3631 86.3467 93.7364 86.36C94.1097 86.3733 94.4964 86.38 94.8964 86.38C95.7097 86.38 96.5431 86.36 97.3964 86.32C97.5297 86.32 97.6231 86.3667 97.6764 86.46C97.7297 86.5533 97.7564 86.6533 97.7564 86.76C97.7431 86.9867 97.6897 87.1133 97.5964 87.14C97.5164 87.1667 97.4031 87.18 97.2564 87.18C96.8431 87.18 96.5431 87.26 96.3564 87.42C96.1831 87.5667 96.0764 87.76 96.0364 88C95.9964 88.2267 95.9697 88.4667 95.9564 88.72V92.26H102.236V88.72C102.236 88.4667 102.21 88.2267 102.156 88C102.116 87.76 102.01 87.5667 101.836 87.42C101.663 87.26 101.363 87.18 100.936 87.18C100.803 87.18 100.683 87.1667 100.576 87.14C100.483 87.1133 100.43 86.9867 100.416 86.76C100.416 86.6533 100.443 86.5533 100.496 86.46C100.563 86.3667 100.656 86.32 100.776 86.32C101.643 86.36 102.476 86.38 103.276 86.38C103.676 86.38 104.063 86.3733 104.436 86.36C104.823 86.3467 105.23 86.3333 105.656 86.32C105.776 86.32 105.863 86.3667 105.916 86.46C105.983 86.5533 106.016 86.6533 106.016 86.76C106.003 86.9867 105.95 87.1133 105.856 87.14C105.763 87.1667 105.65 87.18 105.516 87.18C105.103 87.18 104.803 87.26 104.616 87.42C104.43 87.5667 104.316 87.76 104.276 88C104.236 88.2267 104.21 88.4667 104.196 88.72V96.66C104.21 96.9133 104.236 97.16 104.276 97.4C104.316 97.6267 104.43 97.82 104.616 97.98C104.803 98.1267 105.103 98.2 105.516 98.2C105.65 98.2 105.763 98.2133 105.856 98.24C105.95 98.2667 106.003 98.3933 106.016 98.62C106.016 98.7267 105.983 98.8267 105.916 98.92C105.863 99.0133 105.776 99.06 105.656 99.06C105.23 99.0333 104.823 99.0133 104.436 99C104.05 99 103.656 99 103.256 99C102.47 99 101.643 99.02 100.776 99.06C100.656 99.06 100.563 99.0133 100.496 98.92C100.443 98.8267 100.416 98.7267 100.416 98.62C100.43 98.3933 100.483 98.2667 100.576 98.24C100.683 98.2133 100.803 98.2 100.936 98.2C101.363 98.2 101.663 98.1267 101.836 97.98C102.01 97.82 102.116 97.6267 102.156 97.4C102.21 97.16 102.236 96.9133 102.236 96.66V93.12H95.9564V96.66C95.9697 96.9133 95.9964 97.16 96.0364 97.4C96.0764 97.6267 96.1831 97.82 96.3564 97.98C96.5431 98.1267 96.8431 98.2 97.2564 98.2C97.4031 98.2 97.5164 98.2133 97.5964 98.24C97.6897 98.2667 97.7431 98.3933 97.7564 98.62C97.7564 98.7267 97.7297 98.8267 97.6764 98.92C97.6231 99.0133 97.5297 99.06 97.3964 99.06C96.5431 99.02 95.7164 99 94.9164 99C94.5164 99 94.1231 99 93.7364 99C93.3631 99.0133 92.9631 99.0333 92.5364 99.06ZM109.063 99.06C108.943 99.06 108.857 99.0133 108.803 98.92C108.75 98.8267 108.723 98.7267 108.723 98.62C108.737 98.3933 108.79 98.2667 108.883 98.24C108.977 98.2133 109.09 98.2 109.223 98.2C109.65 98.2 109.95 98.1267 110.123 97.98C110.297 97.82 110.403 97.6267 110.443 97.4C110.497 97.16 110.523 96.9133 110.523 96.66V88.72C110.523 88.4667 110.497 88.2267 110.443 88C110.403 87.76 110.297 87.5667 110.123 87.42C109.95 87.26 109.65 87.18 109.223 87.18C109.09 87.18 108.977 87.1667 108.883 87.14C108.79 87.1133 108.737 86.9867 108.723 86.76C108.723 86.6533 108.75 86.5533 108.803 86.46C108.857 86.3667 108.943 86.32 109.063 86.32C109.503 86.3333 109.91 86.3467 110.283 86.36C110.657 86.3733 111.043 86.38 111.443 86.38H117.723C117.87 86.38 117.99 86.4133 118.083 86.48C118.19 86.5467 118.243 86.6733 118.243 86.86L118.303 89.66C118.303 89.7933 118.237 89.8933 118.103 89.96C117.983 90.0267 117.87 90.06 117.763 90.06C117.617 90.06 117.483 90.0333 117.363 89.98C117.243 89.9133 117.17 89.82 117.143 89.7C117.05 89.1 116.937 88.62 116.803 88.26C116.683 87.8867 116.497 87.62 116.243 87.46C116.003 87.2867 115.65 87.1933 115.183 87.18H112.503V92.26H116.123C116.23 92.2733 116.303 92.3267 116.343 92.42C116.397 92.5133 116.423 92.6133 116.423 92.72C116.423 92.8133 116.397 92.9067 116.343 93C116.303 93.08 116.23 93.12 116.123 93.12H112.503V96.9C112.517 97.0733 112.543 97.2667 112.583 97.48C112.623 97.68 112.737 97.8533 112.923 98C113.123 98.1467 113.45 98.2133 113.903 98.2H115.743C116.21 98.1867 116.563 98.1133 116.803 97.98C117.057 97.8333 117.257 97.5933 117.403 97.26C117.55 96.9267 117.71 96.4667 117.883 95.88C117.937 95.7467 118.023 95.66 118.143 95.62C118.277 95.58 118.417 95.5733 118.563 95.6C118.67 95.6133 118.777 95.66 118.883 95.74C119.003 95.82 119.057 95.9267 119.043 96.06L118.643 98.58C118.603 98.7667 118.537 98.8867 118.443 98.94C118.363 98.98 118.237 99 118.063 99H111.463C111.063 99 110.67 99 110.283 99C109.91 99.0133 109.503 99.0333 109.063 99.06ZM120.858 99.06C120.725 99.06 120.632 99.0133 120.578 98.92C120.525 98.8267 120.498 98.7267 120.498 98.62C120.512 98.3933 120.565 98.2667 120.658 98.24C120.752 98.2133 120.865 98.2 120.998 98.2C121.358 98.2 121.632 98.1267 121.818 97.98C122.005 97.8333 122.152 97.64 122.258 97.4C122.378 97.16 122.492 96.9133 122.598 96.66L126.098 88.38C126.232 88.06 126.258 87.82 126.178 87.66C126.098 87.4867 125.965 87.3667 125.778 87.3C125.592 87.22 125.385 87.16 125.158 87.12C124.958 87.08 124.825 87.0467 124.758 87.02C124.692 86.98 124.658 86.86 124.658 86.66C124.658 86.4333 124.738 86.3133 124.898 86.3C125.058 86.2733 125.245 86.26 125.458 86.26C126.005 86.26 126.472 86.3133 126.858 86.42C127.245 86.5267 127.578 86.7333 127.858 87.04C128.138 87.3333 128.398 87.78 128.638 88.38L131.998 96.66C132.092 96.8867 132.192 97.12 132.298 97.36C132.405 97.6 132.545 97.8 132.718 97.96C132.905 98.1067 133.138 98.1867 133.418 98.2C133.565 98.2 133.678 98.2133 133.758 98.24C133.852 98.2667 133.905 98.3933 133.918 98.62C133.918 98.7267 133.885 98.8267 133.818 98.92C133.765 99.0133 133.678 99.06 133.558 99.06C133.132 99.0333 132.758 99.0133 132.438 99C132.118 99 131.758 99 131.358 99C130.572 99 129.745 99.02 128.878 99.06C128.745 99.06 128.652 99.0133 128.598 98.92C128.545 98.8267 128.518 98.7267 128.518 98.62C128.532 98.3933 128.585 98.2667 128.678 98.24C128.772 98.2133 128.885 98.2 129.018 98.2C129.672 98.2 130.025 98.08 130.078 97.84C130.145 97.6 130.085 97.2067 129.898 96.66L129.218 95H124.278C124.078 95.5067 123.932 95.8733 123.838 96.1C123.758 96.3267 123.705 96.4733 123.678 96.54C123.665 96.6067 123.652 96.6467 123.638 96.66C123.492 97.1133 123.412 97.4533 123.398 97.68C123.398 97.8933 123.505 98.0333 123.718 98.1C123.945 98.1667 124.318 98.2 124.838 98.2C124.985 98.2 125.098 98.2133 125.178 98.24C125.272 98.2667 125.325 98.3933 125.338 98.62C125.338 98.7267 125.305 98.8267 125.238 98.92C125.185 99.0133 125.098 99.06 124.978 99.06C124.552 99.0333 124.178 99.0133 123.858 99C123.552 99 123.198 99 122.798 99C122.532 99 122.305 99 122.118 99C121.945 99.0133 121.765 99.02 121.578 99.02C121.392 99.0333 121.152 99.0467 120.858 99.06ZM124.658 94.14H128.858L126.838 89H126.778L124.658 94.14ZM139.107 99.2C139.107 99.2 139.034 99.0133 138.887 98.64C138.754 98.2533 138.574 97.7533 138.347 97.14C138.134 96.5133 137.887 95.8333 137.607 95.1C137.341 94.3533 137.067 93.6133 136.787 92.88C136.521 92.1333 136.274 91.4533 136.047 90.84C135.834 90.2267 135.654 89.7333 135.507 89.36C135.374 88.9867 135.307 88.8 135.307 88.8C135.094 88.2533 134.881 87.86 134.667 87.62C134.454 87.38 134.134 87.22 133.707 87.14C133.521 87.1 133.387 87.0667 133.307 87.04C133.241 87.0133 133.207 86.8933 133.207 86.68C133.207 86.4533 133.287 86.3333 133.447 86.32C133.607 86.2933 133.794 86.28 134.007 86.28C134.901 86.2933 135.594 86.46 136.087 86.78C136.581 87.0867 136.974 87.62 137.267 88.38L140.167 96.18H140.227L142.987 88.16C143.134 87.7333 143.141 87.4667 143.007 87.36C142.874 87.24 142.574 87.18 142.107 87.18C141.974 87.18 141.861 87.1667 141.767 87.14C141.674 87.1133 141.621 86.9867 141.607 86.76C141.607 86.6533 141.634 86.5533 141.687 86.46C141.741 86.3667 141.827 86.32 141.947 86.32C142.374 86.3333 142.741 86.3467 143.047 86.36C143.367 86.3733 143.727 86.38 144.127 86.38C144.394 86.38 144.614 86.38 144.787 86.38C144.961 86.3667 145.134 86.36 145.307 86.36C145.494 86.3467 145.727 86.3333 146.007 86.32C146.141 86.32 146.234 86.3667 146.287 86.46C146.341 86.5533 146.367 86.6533 146.367 86.76C146.354 86.9867 146.301 87.1133 146.207 87.14C146.127 87.1667 146.014 87.18 145.867 87.18C145.361 87.18 144.961 87.2733 144.667 87.46C144.374 87.6467 144.121 88.0067 143.907 88.54C143.907 88.5267 143.834 88.7133 143.687 89.1C143.554 89.4733 143.374 89.98 143.147 90.62C142.921 91.2467 142.667 91.94 142.387 92.7C142.121 93.46 141.847 94.22 141.567 94.98C141.287 95.74 141.034 96.44 140.807 97.08C140.581 97.72 140.394 98.2333 140.247 98.62C140.114 99.0067 140.047 99.2 140.047 99.2H139.107ZM148.02 99.06C147.9 99.06 147.814 99.0133 147.76 98.92C147.707 98.8267 147.68 98.7267 147.68 98.62C147.694 98.3933 147.747 98.2667 147.84 98.24C147.934 98.2133 148.047 98.2 148.18 98.2C148.607 98.2 148.907 98.1267 149.08 97.98C149.254 97.82 149.36 97.6267 149.4 97.4C149.454 97.16 149.48 96.9133 149.48 96.66V88.72C149.48 88.4667 149.454 88.2267 149.4 88C149.36 87.76 149.254 87.5667 149.08 87.42C148.907 87.26 148.607 87.18 148.18 87.18C148.047 87.18 147.934 87.1667 147.84 87.14C147.747 87.1133 147.694 86.9867 147.68 86.76C147.68 86.6533 147.707 86.5533 147.76 86.46C147.814 86.3667 147.9 86.32 148.02 86.32C148.46 86.3333 148.867 86.3467 149.24 86.36C149.614 86.3733 150 86.38 150.4 86.38H156.68C156.827 86.38 156.947 86.4133 157.04 86.48C157.147 86.5467 157.2 86.6733 157.2 86.86L157.26 89.66C157.26 89.7933 157.194 89.8933 157.06 89.96C156.94 90.0267 156.827 90.06 156.72 90.06C156.574 90.06 156.44 90.0333 156.32 89.98C156.2 89.9133 156.127 89.82 156.1 89.7C156.007 89.1 155.894 88.62 155.76 88.26C155.64 87.8867 155.454 87.62 155.2 87.46C154.96 87.2867 154.607 87.1933 154.14 87.18H151.46V92.26H155.08C155.187 92.2733 155.26 92.3267 155.3 92.42C155.354 92.5133 155.38 92.6133 155.38 92.72C155.38 92.8133 155.354 92.9067 155.3 93C155.26 93.08 155.187 93.12 155.08 93.12H151.46V96.9C151.474 97.0733 151.5 97.2667 151.54 97.48C151.58 97.68 151.694 97.8533 151.88 98C152.08 98.1467 152.407 98.2133 152.86 98.2H154.7C155.167 98.1867 155.52 98.1133 155.76 97.98C156.014 97.8333 156.214 97.5933 156.36 97.26C156.507 96.9267 156.667 96.4667 156.84 95.88C156.894 95.7467 156.98 95.66 157.1 95.62C157.234 95.58 157.374 95.5733 157.52 95.6C157.627 95.6133 157.734 95.66 157.84 95.74C157.96 95.82 158.014 95.9267 158 96.06L157.6 98.58C157.56 98.7667 157.494 98.8867 157.4 98.94C157.32 98.98 157.194 99 157.02 99H150.42C150.02 99 149.627 99 149.24 99C148.867 99.0133 148.46 99.0333 148.02 99.06ZM160.935 99.06C160.802 99.06 160.709 99.0133 160.655 98.92C160.602 98.8267 160.575 98.7267 160.575 98.62C160.589 98.3933 160.642 98.2667 160.735 98.24C160.829 98.2133 160.942 98.2 161.075 98.2C161.502 98.2 161.795 98.1267 161.955 97.98C162.129 97.82 162.235 97.6267 162.275 97.4C162.315 97.16 162.335 96.9133 162.335 96.66L162.375 88.72C162.375 88.0933 162.269 87.6933 162.055 87.52C161.842 87.3467 161.502 87.2133 161.035 87.12C160.835 87.08 160.702 87.0467 160.635 87.02C160.569 86.98 160.535 86.86 160.535 86.66C160.535 86.4333 160.615 86.3133 160.775 86.3C160.935 86.2733 161.122 86.26 161.335 86.26C162.082 86.26 162.682 86.32 163.135 86.44C163.602 86.56 164.009 86.7733 164.355 87.08C164.715 87.3867 165.102 87.82 165.515 88.38L170.995 95.58H171.055L171.015 88.72C171.015 88.4667 170.995 88.2267 170.955 88C170.915 87.76 170.809 87.5667 170.635 87.42C170.475 87.26 170.182 87.18 169.755 87.18C169.622 87.18 169.509 87.1667 169.415 87.14C169.322 87.1133 169.262 86.9867 169.235 86.76C169.235 86.6533 169.262 86.5533 169.315 86.46C169.382 86.3667 169.475 86.32 169.595 86.32C169.889 86.3333 170.122 86.3467 170.295 86.36C170.482 86.36 170.662 86.3667 170.835 86.38C171.022 86.38 171.249 86.38 171.515 86.38C171.782 86.38 172.002 86.38 172.175 86.38C172.349 86.3667 172.522 86.36 172.695 86.36C172.882 86.3467 173.115 86.3333 173.395 86.32C173.529 86.32 173.622 86.3667 173.675 86.46C173.729 86.5533 173.755 86.6533 173.755 86.76C173.742 86.9867 173.689 87.1133 173.595 87.14C173.515 87.1667 173.402 87.18 173.255 87.18C172.842 87.18 172.549 87.26 172.375 87.42C172.202 87.5667 172.095 87.76 172.055 88C172.029 88.2267 172.009 88.4667 171.995 88.72L171.955 98.8C171.942 98.9067 171.875 98.9733 171.755 99C171.649 99.04 171.549 99.06 171.455 99.06C171.202 99.06 171.009 98.9733 170.875 98.8L163.335 88.72H163.275L163.315 96.66C163.329 96.9133 163.349 97.16 163.375 97.4C163.415 97.6267 163.522 97.82 163.695 97.98C163.869 98.1267 164.162 98.2 164.575 98.2C164.722 98.2 164.842 98.2133 164.935 98.24C165.029 98.2667 165.082 98.3933 165.095 98.62C165.095 98.7267 165.062 98.8267 164.995 98.92C164.942 99.0133 164.855 99.06 164.735 99.06C164.455 99.0467 164.215 99.0333 164.015 99.02C163.829 99.02 163.642 99.0133 163.455 99C163.282 99 163.062 99 162.795 99C162.529 99 162.309 99 162.135 99C161.975 99.0133 161.809 99.02 161.635 99.02C161.462 99.0333 161.229 99.0467 160.935 99.06Z" fill="white"/>
</svg>
